<svg
    width="1606"
    height="380"
    viewBox="0 0 1606 380"
    fill="none"
    xmlns="http://www.w3.org/2000/svg"
    class="w-[1606px] h-[380px]"
    preserveAspectRatio="none"
  >
    <mask
      id="mask0_1_950"
      style="mask-type: alpha"
      maskUnits="userSpaceOnUse"
      x="0"
      y="0"
      width="1606"
      height="380"
    >
        <rect width="1606" height="380" fill="#F8F0EA"></rect>
    </mask>
    <g mask="url(#mask0_1_950)">
        <path
        d="M251.167 160.504C246.924 152.26 242.54 148.865 235.492 146.03C227.718 142.907 217.115 147.163 210.393 153.855C207.113 157.132 203.604 163.115 202.533 167.901C201.215 173.513 201.287 177.404 202.068 182.029C205.73 203.43 220.841 222.632 241.927 228.326C241.927 228.326 241.927 228.326 241.944 228.392C241.884 228.416 241.783 228.529 241.74 228.619C234.904 228.168 226.328 236.04 225.964 252.886C225.88 255.388 226.102 257.55 226.251 258.652C226.375 259.401 226.424 260.107 226.841 261.755C227.242 263.337 227.611 264.278 228.123 265.525C228.282 265.896 228.87 267.185 229.248 267.905C232.223 273.463 235.585 276.688 241.331 277.213C242.373 290.082 250.013 301.174 242.928 310.552C241.681 312.069 240.131 313.418 238.381 313.467C240.061 311.34 241.004 309.655 240.684 306.589C240.438 304.073 238.553 298.44 234.527 299.548C228.496 301.243 228.49 311.774 235.556 314.165C233.623 316.321 230.783 319.276 229.868 322.62C228.407 327.926 230.509 331.584 232.238 335.319C235.975 343.113 231.424 344.722 234.283 349.31C235.065 350.594 236.945 352.09 239.134 352.228C243.916 352.559 242.85 350.155 242.004 350.422C239.322 351.426 237.515 350.99 235.796 349.356C232.443 345.91 236.009 343.245 234.547 337.732C232.841 331.519 227.481 326.846 233.904 318.459C234.701 317.485 236.668 315.461 237.465 314.488C240.887 314.857 243.718 312.123 245.604 308.752C250.762 299.493 243.962 287.338 243.199 277.117C245.278 277.081 246.572 276.779 248.043 276.406C250.911 275.618 254.082 272.167 254.485 267.576C254.608 266.002 254.588 264.122 253.891 262.659C253.118 261.155 250.822 260.334 249.478 260.438C245.97 260.757 240.973 267.046 241.352 275.752C234.112 274.738 229.329 266.42 228.246 258.287C226.054 242.685 233.401 230.732 240.569 230.178C239.321 232.204 237.966 238.702 237.905 239.235C237.8 240.366 238.634 241.338 240.105 240.965C241.577 240.592 242.342 238.978 243.834 237.653C246.739 235.47 249.107 235.028 249.576 233.533C250.131 231.858 248.449 231.662 244.859 228.311C249.153 225.426 248.623 230.285 252.632 231.943C256.928 233.704 259.548 228.078 257.503 225.414C260.943 222.508 261.04 218.258 261.245 217.522C262.261 216.896 260.989 215.737 260.282 217.328C259.985 217.955 259.558 222.193 256.475 224.447C251.996 221.453 252.795 228.465 256.724 225.944C258.686 228.279 255.151 234.417 250.532 227.776C248.975 225.497 247.075 224.953 244.764 226.389C258.243 204.133 262.207 181.921 251.167 160.504ZM236.278 313.149C228.415 311.223 230.047 299.895 235.783 300.642C238.029 301.265 240.05 306.407 238.688 309.786C238.076 310.975 237.092 312.242 236.278 313.149ZM250.319 261.697C252.532 262.189 252.986 262.95 253.346 264.113C254.348 268.067 252.688 272.073 250.095 274.203C248.011 275.766 245.307 275.907 243.016 275.883C242.484 267.602 246.729 261.178 250.319 261.697ZM254.242 224.907C254.301 224.884 254.285 224.818 254.242 224.907C254.285 224.818 254.301 224.884 254.242 224.907ZM254.361 224.86C254.344 224.794 254.344 224.794 254.361 224.86C254.344 224.794 254.344 224.794 254.361 224.86C254.344 224.794 254.344 224.794 254.361 224.86ZM254.42 224.836C254.614 224.831 254.885 224.867 255.248 225.012C254.816 225.113 254.664 225.028 254.42 224.836ZM204.088 170.689C204.105 170.755 204.046 170.779 204.062 170.845L204.088 170.689ZM204.037 171.001C204.053 171.066 203.994 171.09 204.011 171.156C203.994 171.09 204.037 171.001 204.037 171.001ZM240.418 238.08C241.245 233.102 244.214 235.032 246.401 232.847C246.493 232.955 246.569 232.997 246.721 233.082C241.65 235.989 242.276 235.883 240.418 238.08ZM245.482 232.054C244.364 232.793 241.998 232.727 240.59 234.381C241.009 232.688 241.394 231.372 242.395 230.172C242.665 230.208 242.885 230.047 243.013 229.778C244.133 230.853 244.091 230.943 245.482 232.054ZM252.527 205.266C249.346 214.602 242.364 226.19 242.083 226.884C239.567 226.224 233.187 223.194 231.018 222.104C231.018 222.104 219.355 216.766 208.699 196.865C206.968 193.639 205.94 189.841 205.589 188.457C203.108 178.924 203.354 175.776 204.079 170.911C204.433 168.445 205.755 164.647 207.904 161.026C214.427 150.202 225.619 146.726 232.384 147.931C234.791 148.417 236.614 149.428 238.842 150.494C242.216 152.48 243.802 153.586 246.679 157.731C255.388 170.209 258.13 188.495 252.527 205.266Z"
        fill="#EFE2DA"
      ></path>
        <path
        d="M242.871 162.801C242.724 162.493 242.235 162.684 242.137 163.088C242.128 163.311 243.048 164.78 243.178 165.022C244.895 168.007 246.079 171.275 246.628 173.913C248.414 182.358 247.605 184.431 248.703 184.513C249.802 184.594 249.538 182.796 248.938 179.446C247.182 169.818 245.292 166.681 242.871 162.801Z"
        fill="#EFE2DA"
      ></path>
        <path
        d="M248.611 187.264C248.194 187.649 248.351 188.018 248.453 190.212C248.477 190.563 248.734 190.82 249.042 190.767C249.957 190.829 249.803 189.449 249.774 187.802C249.768 187.012 249.07 186.79 248.611 187.264Z"
        fill="#EFE2DA"
      ></path>
        <path
        d="M249.858 193.568C249.154 193.566 249.409 194.326 249.194 196.786C248.964 199.181 248.486 201.101 247.718 203.139C244.755 210.455 244.621 210.941 245.333 211.228C245.954 211.407 246.104 210.987 247.649 206.692C248.677 203.901 249.92 200.951 250.156 196.54C250.182 196.386 250.313 194.103 250.263 193.907C250.231 193.776 250.065 193.628 249.858 193.568Z"
        fill="#EFE2DA"
      ></path>
        <path
        d="M243.383 215.683C242.986 216.63 242.548 217.664 242.151 218.611C241.945 219.052 242.395 219.583 242.896 219.308C243.11 219.149 244.482 216.022 244.474 215.739C244.402 215.197 243.656 215.001 243.383 215.683Z"
        fill="#EFE2DA"
      ></path>
        <path
        d="M212.608 157.444C211.483 158.546 210.433 159.689 209.505 161.069C206.88 165.074 205.641 174.607 206.29 175.419C206.684 175.975 207.46 175.517 207.503 174.926C207.66 171.995 208.109 167.943 208.966 165.015C209.824 162.087 210.288 161.397 211.876 159.605C212.612 158.732 213.661 158.091 213.209 157.558C213.07 157.256 212.806 157.22 212.608 157.444Z"
        fill="#EFE2DA"
      ></path>
        <path
        d="M208.032 183.001C207.416 183.173 207.662 183.877 207.998 185.71C208.083 186.041 208.402 187.808 208.649 188.001C208.973 188.236 209.462 187.823 209.361 187.426C208.509 183.831 208.768 182.781 208.032 183.001Z"
        fill="#EFE2DA"
      ></path>
        <path
        d="M211.597 195.505C211.078 195.786 211.195 196.248 212.274 198.943C213.176 201.201 213.774 202.779 214.507 202.05C214.711 201.823 214.823 201.487 214.603 201.139C212.499 197.763 212.677 194.855 211.597 195.505Z"
        fill="#EFE2DA"
      ></path>
        <path
        d="M137.377 10.2797C135.832 12.3239 137.345 16.4972 138.552 18.7995C139.659 20.9591 146.46 31.662 151.215 35.8725C151.031 35.6684 151.129 35.8111 151.3 35.9339C148.403 46.6879 135.458 54.4433 132.138 46.6032C133.577 46.2043 137.642 45.7581 139.389 43.5728C141.952 40.396 139.734 35.1422 134.84 36.4984C131.746 37.356 129.875 41.5319 130.005 45.0681C128.043 45.9519 126.189 47.4865 124.743 49.6734C122.932 52.3868 126.077 53.2159 126.044 51.1838C126.617 50.0896 128.215 48.3708 130.366 47.2645C133.284 56.3216 146.741 52.5921 152.432 39.6176C151.611 44.6931 149.675 47.1009 146.953 51.5976C144.596 55.5678 140.395 63.8767 124.286 77.1018C121.23 79.5648 116.437 83.3598 109.733 87.4293C98.2322 94.3591 80.3896 100.24 72.7135 101.602C45.8047 106.338 19.9897 93.9311 7.41515 77.8542C16.2904 80.5825 18.1027 80.1653 20.976 79.7942C25.014 79.1853 26.967 77.7935 28.219 76.2558C29.2232 75.0419 29.8008 73.521 30.2211 71.9586C38.4632 67.6329 42.8895 56.1148 50.0033 54.9937C50.5204 54.9354 50.6057 54.9968 50.7764 55.1196C51.787 55.7751 52.2118 57.4435 52.3455 58.2569C52.3589 58.3383 52.2869 58.3582 52.3003 58.4395C52.1379 58.8248 52.0207 59.0273 52.0876 59.4341C52.3417 60.9796 54.6979 60.6668 54.4909 57.5772C54.4559 56.9065 53.9591 55.2581 53.1561 54.0348C51.8596 52.0977 50.0205 52.3523 48.1043 53.0535C46.9663 53.4539 46.2149 53.9173 44.856 54.8043C41.3867 57.0416 36.633 64.7381 30.8457 68.8937C30.761 65.1748 25.9856 62.671 22.5144 66.2697C19.8984 69.1211 21.7802 73.7027 27.5134 72.8791C26.2914 75.5143 24.3033 76.2354 21.7579 76.7707C16.3075 77.9412 15.0912 76.4922 6.81144 75.555C7.1897 75.1099 7.10945 74.6219 7.0878 74.0325C11.9217 66.8241 12.2465 66.0537 13.7933 62.6481C16.2239 57.2966 18.645 49.1409 15.6889 44.4318C14.2668 42.1893 11.3987 42.1337 8.78589 45.9198C7.93895 47.1752 7.348 48.6147 6.82902 50.0344C3.68837 58.3894 4.44878 64.3875 4.93791 71.4814C4.53161 69.4677 3.02806 64.4411 1.65635 61.5893C1.40544 60.9784 0.450216 59.2869 -0.720887 57.6553C-2.00407 55.7996 -3.45473 54.7557 -5.47277 54.3795C-12.8304 53.1017 -12.8417 70.8808 2.74481 77.3625C-0.835878 85.3292 -4.905 92.1556 -12.6613 93.0295C-13.2503 93.1077 -14.0101 93.0631 -14.6392 92.8973C-11.4692 89.297 -10.8427 84.8707 -12.2093 81.5922C-15.0998 74.9938 -21.6716 77.5807 -22.0326 84.9953C-22.1434 87.0672 -21.483 90.6265 -19.1892 93.1377C-23.927 95.8967 -33.2798 97.1281 -34.389 105.941C-34.8347 109.637 -32.5856 108.673 -32.5569 107.474C-32.2392 98.881 -22.1554 98.8929 -16.8718 94.8769C-12.0245 97.3608 -5.95954 93.9788 -3.65495 91.9792C-1.10266 89.6558 1.80624 86.298 5.13093 78.1471C5.51557 79.5714 9.11612 83.1663 10.391 84.514C10.4044 84.5954 10.4178 84.6767 10.3592 84.778C11.5558 93.8872 9.99758 95.85 10.6486 115.827C10.9397 126.293 10.2852 137.871 12.1893 139.385C14.1787 140.96 17.5932 136.101 19.1833 133.874C21.3624 131.569 37.728 101.603 38.0662 100.913C40.5376 101.759 43.5262 102.547 46.0428 103.21C46.9255 108.579 53.576 146.285 57.3842 149.312C58.0802 149.885 59.1277 149.85 60.2625 148.515C63.0995 145.177 67.3876 129.614 68.1192 127.2C69.1037 124.036 69.2158 124.26 72.1928 113.994C72.4188 113.081 75.8492 103.284 75.8492 103.284C77.6616 102.867 80.1935 102.251 84.2684 100.951C87.8333 107.533 93.5882 116.909 98.8368 121.834C99.0075 121.956 99.0075 121.956 98.8368 121.834C99.5195 122.325 99.8691 123.078 103.629 125.353C104.298 125.763 109.949 129.471 114.15 130.773C121.682 133.108 121.155 130.362 120.015 126.17C117.586 116.892 112.127 88.7219 112.127 88.7219C117.491 85.194 121.24 82.3689 125.759 78.735C136.888 89.684 141.527 86.7822 153.648 96.436C154.429 97.0699 160.101 101.366 161.642 102.045C163.197 102.805 164.452 102.202 164.765 99.9888C164.842 99.5421 164.826 98.5261 164.764 97.6927C164.533 95.3751 163.335 87.6273 162.266 83.4157C160.858 77.5971 159.162 71.8583 157.192 66.2806C156.167 63.2478 155.038 60.4988 153.535 57.7682C152.567 55.9954 151.585 54.1413 150.616 52.3685C150.491 52.063 150.293 51.7775 150.24 51.4521C150.098 50.1307 151.959 46.808 152.518 45.6325C152.902 44.7607 154.579 41.234 154.131 40.3376C154.803 41.6821 155.211 42.3345 155.916 43.4151C162.695 53.5286 180.859 45.9427 176.293 31.8987C174.48 26.3625 171.118 25.5932 168.278 27.9964C166.234 29.7535 165.772 32.4332 166.083 35.2388C166.145 36.0722 167.246 36.3624 167.786 35.5322C168.079 35.0257 167.94 34.6389 167.817 32.9721C167.764 28.9893 170.903 27.9491 172.444 28.6276C176.689 31.1084 178.429 43.9794 166.675 45.7062C165.052 45.901 163.794 45.5693 162.338 44.9521C158.653 43.5919 156.922 40.8398 154.888 35.7901C154.92 35.5261 154.807 35.302 154.623 35.0978C154.511 34.8737 154.471 34.6297 154.359 34.4056C156.509 27.3458 160.831 19.769 161.602 11.6454C162.155 4.94298 159.653 0.703579 156.711 2.02931C155.24 2.69217 154.126 4.61668 153.346 6.27878C151.949 9.21776 151.513 12.0602 151.144 15.3093C150.744 18.8224 151.001 21.3027 151.22 25.8349C149.684 21.0723 147.541 16.7332 145.284 13.5313C145.074 13.1645 144.423 12.4093 143.799 11.8168C141.257 9.62939 139.052 8.11429 137.377 10.2797ZM138.588 40.9881C137.968 43.6263 133.864 43.8285 131.633 44.4467C131.815 36.4013 139.097 36.7644 138.588 40.9881ZM23.2938 68.2651C24.1459 66.583 26.7816 65.6824 28.3743 68.0477C28.7105 68.72 28.7054 69.1467 28.3622 70.2624C25.8704 71.1232 22.5488 70.5979 23.2938 68.2651ZM7.20987 54.1814C8.9833 46.2053 13.062 42.183 14.6694 46.9258C16.7983 54.841 8.04932 67.9824 6.77382 70.2922C6.26621 63.5436 5.84844 60.0872 7.20987 54.1814ZM-17.2495 91.6645C-20.375 89.1287 -21.6926 82.9448 -18.4876 80.0153C-15.1756 77.7365 -10.6503 85.5829 -17.2495 91.6645ZM3.98019 74.8087C-16.9237 64.3574 -6.2727 44.4799 1.56533 65.612C3.15102 69.7653 3.59744 72.023 3.98019 74.8087ZM28.3097 104.723C28.2963 104.642 30.0978 99.1245 30.0844 99.0432C30.071 98.9618 30.0577 98.8805 29.9723 98.8191C30.3187 98.638 30.6066 98.5582 30.697 98.1929C30.7422 98.0103 30.7155 97.8476 30.6887 97.6849C30.7741 97.7463 30.8594 97.8077 30.9313 97.7878C30.1946 100.629 29.2636 104.119 29.2184 104.301C28.8586 104.401 28.6561 104.542 28.3097 104.723ZM24.135 122.806C24.1216 122.724 24.1216 122.724 24.135 122.806C24.2254 122.44 26.3319 114.202 26.4223 113.837C26.6012 114.467 26.4223 113.837 26.7216 115.2C26.5777 115.239 26.4471 115.361 26.4019 115.543C25.3219 119.5 25.2952 119.337 24.4279 122.299C24.3693 122.401 24.135 122.806 24.135 122.806ZM27.0075 116.481C27.061 116.807 27.1011 117.051 27.2986 117.336C26.947 117.944 26.6675 118.532 26.316 119.139C26.5287 118.145 26.7681 117.313 27.0075 116.481ZM23.6516 121.239C23.6249 121.076 23.5261 120.933 23.4994 120.771C24.0706 117.38 25.241 113.058 25.241 113.058C25.2276 112.977 25.2276 112.977 25.2142 112.896C25.4167 112.755 25.6193 112.613 25.8937 112.452C25.0748 116.166 24.5507 118.013 23.6516 121.239ZM22.8938 119.833C22.6512 119.73 22.4353 119.79 22.2194 119.85C22.7804 117.313 23.0148 116.907 23.4185 114.329C23.7515 114.067 24.0979 113.886 24.431 113.623C23.4917 116.605 23.2924 117.681 22.8938 119.833ZM21.1617 120.738C20.9592 120.879 20.7701 121.102 20.5675 121.243C20.9343 119.355 21.5087 116.9 21.857 115.357C22.0595 115.216 22.262 115.075 22.3926 114.954C21.8583 117.653 21.6692 117.876 21.1617 120.738ZM19.4646 122.314C19.2035 122.557 18.9424 122.799 18.6813 123.041C19.4283 119.347 19.0851 120.463 19.9759 116.729C20.2504 116.568 20.5115 116.325 20.7859 116.164C19.9989 119.614 19.7225 121.137 19.4646 122.314ZM17.6822 123.829C17.6102 123.849 17.4077 123.99 17.3358 124.01C17.2371 123.867 17.2103 123.704 17.1116 123.562C17.4014 122.12 17.0448 123.155 18.3158 117.614C18.6889 117.596 18.7475 117.495 19.0354 117.415C18.4928 119.607 18.5915 119.749 17.6822 123.829ZM14.5944 126.556C14.6663 126.536 14.6663 126.536 14.5944 126.556V126.556ZM13.4278 137.766C13.3559 137.786 13.2839 137.806 13.212 137.826C16.3781 127.337 13.4966 136.811 15.6547 130.259C15.7534 130.402 15.6547 130.259 15.8253 130.382C14.7186 134.176 14.5346 133.972 13.4278 137.766ZM15.0542 128.895C15.1662 129.119 15.0943 129.139 15.193 129.282C14.1047 132.73 14.3359 131.39 12.9311 136.117C12.9044 135.955 12.8776 135.792 12.9228 135.609C13.7398 133.257 13.5641 133.56 15.0542 128.895ZM12.8629 133.415C12.868 132.988 12.8012 132.581 12.8063 132.154C13.7589 129.254 14.2008 128.281 14.5708 127.328C14.5975 127.49 14.5975 127.49 14.7096 127.714C13.2832 131.852 13.0438 132.684 12.8629 133.415ZM12.733 129.878C12.7483 128.598 12.7247 129.37 12.7349 128.517C13.1132 128.072 13.2437 127.951 13.622 127.506C13.3558 128.175 12.9992 129.209 12.733 129.878ZM12.6169 113.155C12.7475 113.034 13.3384 111.594 13.3836 111.412C12.9952 112.71 12.8411 113.603 12.6603 114.334C12.6068 114.008 12.6118 113.582 12.6169 113.155ZM16.3677 108.969C16.5817 110.27 16.4613 109.538 16.595 110.352L13.9327 120.7C13.208 121.326 13.541 121.064 13.0055 121.468C13.0188 121.549 15.4736 111.768 16.3677 108.969ZM16.5831 122.177C16.4576 121.872 16.3455 121.648 16.2201 121.342C16.3372 121.14 17.2918 116.878 17.3236 116.614C17.3637 116.858 17.4039 117.102 17.5879 117.306C17.0855 119.741 16.9365 120.208 16.5831 122.177ZM16.9294 112.385C17.023 112.955 17.13 113.605 17.1516 114.195C16.7314 115.757 15.8991 119.39 15.7183 120.12C15.5208 119.835 15.2916 119.813 15.0757 119.873C16.6027 114.517 15.6316 117.763 16.9294 112.385ZM12.8017 119.313C12.78 118.723 12.7584 118.134 12.7367 117.545C12.9494 116.55 13.3429 114.825 13.569 113.912C13.569 113.912 14.1968 111.782 15.28 108.76C15.4106 108.639 15.6131 108.497 15.7436 108.376C14.7324 111.378 13.3627 116.776 12.8017 119.313ZM13.7721 110.113C13.7587 110.032 13.7587 110.032 13.8307 110.012L13.7721 110.113ZM12.5787 111.55C12.552 111.387 12.5386 111.306 12.5838 111.123C12.6424 111.022 12.7863 110.982 12.8449 110.881C12.7277 111.083 12.6825 111.266 12.5787 111.55ZM12.474 86.6584C12.6447 86.7812 12.8287 86.9853 12.9994 87.1081C12.8453 88.0014 12.7549 88.3666 12.6326 88.9959C12.5275 86.9838 12.5409 87.0651 12.474 86.6584ZM14.6475 88.4375C14.2291 88.6385 13.8107 88.8395 13.3923 89.0405C13.5146 88.4112 13.5732 88.3099 13.6954 87.6807C14.0368 87.9263 14.3061 88.1918 14.6475 88.4375ZM12.6582 96.4734C13.1351 96.1711 13.5401 95.8888 14.0305 95.6678C13.2186 97.5939 13.0645 98.4871 12.5722 100.069C12.6009 98.8708 12.6295 97.6721 12.6582 96.4734ZM14.375 96.8481C14.5374 96.4629 14.9793 95.4899 14.7819 95.2044C15.1283 95.0233 15.4028 94.8622 15.7492 94.6811C15.6454 94.9651 13.4421 101.7 13.5676 102.005C13.3065 102.247 12.9601 102.428 12.699 102.671C13.6516 99.7703 13.9146 98.1665 14.375 96.8481ZM16.8018 94.2193C17.0763 94.0582 17.3641 93.9784 17.6386 93.8173C16.8299 96.678 17.2903 95.3597 15.8588 99.924C15.8002 100.025 15.8136 100.107 15.827 100.188C15.4353 100.552 15.0303 100.834 14.6387 101.198C14.6387 101.198 16.7299 94.2392 16.8018 94.2193ZM18.6779 93.2741C19.3707 92.9119 19.3707 92.9119 19.6585 92.8322C19.1478 94.7598 17.8838 98.5122 17.852 98.7762C17.5775 98.9373 17.1725 99.2197 16.97 99.3609C18.3614 94.5525 17.6616 96.7027 18.6779 93.2741ZM20.4635 92.6941C20.7061 92.797 20.8901 93.0011 21.1328 93.104C20.0394 96.9792 20.1432 96.6953 19.4198 99.6175C19.281 99.2307 19.0836 98.9452 18.8276 98.761C20.2909 93.9327 20.6876 93.1423 20.4635 92.6941ZM22.714 94.0266C22.5834 94.1478 20.2127 101.694 20.1674 101.877C20.0286 101.49 19.9032 101.185 19.8363 100.778C20.2413 100.495 20.4508 98.5663 21.9593 93.5553C22.2153 93.7395 22.458 93.8424 22.714 94.0266ZM24.2347 96.4118C24.3684 97.2253 24.5607 97.9375 24.6945 98.7509C24.5187 99.0548 21.9722 106.905 21.8098 107.29C21.6041 106.497 21.6041 106.497 21.3984 105.703C22.1467 104.305 23.0159 99.9816 24.2347 96.4118ZM25.0072 100.195C25.1326 100.501 25.2313 100.643 25.3886 100.685C24.0526 104.457 23.8132 105.289 23.0815 107.703C22.8071 107.864 22.7351 107.884 22.3887 108.065C22.8809 106.483 24.741 100.864 25.0072 100.195ZM26.2789 100.608C26.8412 100.367 26.0044 100.769 26.6253 100.427C25.4549 104.749 25.2288 105.662 25.0028 106.575C25.0028 106.575 24.4538 106.898 24.1794 107.059C25.1823 103.549 26.2789 100.608 26.2789 100.608ZM27.7499 99.9453C28.3841 99.6845 28.5866 99.5433 29.1489 99.3024C28.4357 101.371 27.7945 103.42 27.2252 105.449C26.8068 105.65 26.5324 105.811 26.114 106.012C26.2948 105.282 26.8055 103.354 27.7499 99.9453ZM32.4138 98.5676C32.0974 99.8461 31.153 103.255 30.3494 105.689C30.2239 105.383 30.1704 105.058 29.9864 104.854C30.4016 103.718 31.5905 99.051 31.7713 98.3205C31.8566 98.3819 32.3419 98.5876 32.4138 98.5676ZM30.9932 108.232C30.9264 107.825 30.9665 108.069 30.7608 107.276C31.2027 106.303 32.9106 100.216 33.1551 98.9576C33.3977 99.0604 33.6403 99.1633 33.811 99.2861C33.8963 99.3475 32.5686 103.628 30.9932 108.232ZM30.1315 97.4992C30.0596 97.5191 26.51 99.2684 25.9343 99.4279C25.8942 99.1839 25.3141 96.1127 25.2739 95.8686C25.4631 95.6461 25.4363 95.4834 25.3962 95.2394C26.78 95.8765 27.0226 95.9793 30.1315 97.4992ZM23.8551 94.5608C20.6858 104.115 23.2807 97.0164 20.9418 104.299C20.8164 103.993 20.7495 103.587 20.624 103.281C20.7278 102.997 23.41 94.5991 23.4418 94.3352C23.6978 94.5194 23.6125 94.458 23.8551 94.5608ZM19.0396 91.813C18.4773 92.0539 14.6533 93.9643 12.6734 95.1934C12.7441 92.8774 12.7409 91.9427 12.6976 90.764C13.6515 90.1594 14.6188 89.6361 15.6848 89.2556C16.7942 90.0538 17.9302 91.0148 19.0396 91.813ZM14.3818 137.161C15.3529 133.915 15.7311 133.47 16.6436 130.325C16.9901 130.144 16.9901 130.144 17.2511 129.902C16.131 133.614 17.0436 130.47 15.2822 136.231C15.0479 136.636 14.7148 136.899 14.3818 137.161ZM20.6918 128.863C20.6918 128.863 20.6198 128.883 20.6918 128.863C20.6198 128.883 20.6918 128.863 20.6918 128.863ZM16.7366 134.552L16.6781 134.654C17.3645 132.422 17.9421 130.901 18.4394 128.892C18.7005 128.65 18.498 128.791 18.8311 128.528C17.6842 132.078 17.4046 132.666 16.7366 134.552ZM18.3401 132.407C18.9495 130.622 19.3513 129.405 19.9607 127.62C20.0461 127.681 20.0728 127.844 20.1715 127.987C19.6474 129.833 19.2055 130.806 18.9527 131.557C18.777 131.86 18.5292 132.184 18.3401 132.407ZM21.3948 127.648C20.4396 125.956 20.0715 125.548 18.6941 126.78C17.8523 127.609 16.9652 128.62 16.3577 129.044C14.8338 125.724 15.5018 123.838 12.6967 126.912C12.7253 125.713 12.754 124.514 12.7106 123.335C13.1023 122.972 14.4931 121.821 14.8847 121.457C16.4201 126.22 16.6442 126.668 19.7321 123.941C19.804 123.921 19.876 123.901 19.9932 123.699C20.7764 122.971 21.4292 122.365 22.2124 121.638C22.6423 122.879 22.8881 123.917 23.1976 124.426C22.6117 125.439 22.0393 126.534 21.3948 127.648ZM28.3849 115.249C27.387 108.721 26.7744 109.571 24.2858 111.367C19.4391 114.837 21.6399 113.121 18.9621 115.139C18.8118 113.309 17.7935 108.488 17.4407 106.8C17.4592 106.455 17.235 106.007 16.9204 105.924C16.2059 105.696 15.1749 106.748 12.5055 109.274C12.4539 107.587 12.4876 105.962 12.508 104.255C14.6635 102.722 16.8962 100.742 18.1379 100.058C18.4608 100.649 20.2337 105.941 20.6483 108.463C21.0813 110.639 21.7474 110.114 25.041 108.181C30.2691 105.201 26.6426 107.397 29.0006 105.722C29.6546 107.412 29.7445 110.705 30.5309 110.912C29.8094 112.473 29.1918 113.749 28.3849 115.249ZM31.6893 108.805C32.4292 106.899 34.1269 101.665 34.6242 99.6561C34.7949 99.7789 34.9522 99.8203 35.1948 99.9232C34.8064 101.222 34.1466 103.616 33.8168 104.813C33.4201 105.603 33.6277 105.035 31.6893 108.805ZM35.5877 101.856C35.7234 101.308 35.8724 100.841 36.08 100.273C36.2372 100.315 36.3226 100.376 36.4799 100.418C36.1016 100.863 35.8806 101.349 35.5877 101.856ZM73.4612 103.861L73.4478 103.78L73.5198 103.76C73.4478 103.78 73.4612 103.861 73.4612 103.861ZM70.8038 104.173C71.0197 104.113 71.2489 104.134 71.4648 104.074C71.7724 105.945 71.8074 106.616 71.7705 107.307C71.3655 107.589 71.3655 107.589 71.2216 107.629C71.1063 106.47 70.9191 105.331 70.8038 104.173ZM72.6429 103.918C73.0059 104.753 72.8651 105.728 72.3965 106.538C72.3799 105.522 72.2595 104.79 72.1258 103.976C72.2697 103.936 72.499 103.958 72.6429 103.918ZM70.2147 104.251C70.402 105.39 70.5172 106.548 70.6191 107.626C70.3046 107.543 70.3046 107.543 70.1339 107.42C70.1339 107.42 69.9435 105.347 69.8416 104.269C69.9989 104.311 70.0708 104.291 70.2147 104.251ZM69.1086 104.387C69.1086 104.387 69.1806 104.367 69.1086 104.387C69.1704 105.221 69.3041 106.034 69.3659 106.867C68.8724 106.154 68.5412 105.055 69.1086 104.387ZM55.9032 108.728C55.8917 107.285 55.8783 107.204 55.9356 104.806C56.0929 104.848 56.1649 104.828 56.3222 104.869C56.5362 106.171 56.6062 107.512 55.9032 108.728ZM51.0042 104.557C50.8584 105.958 50.7979 107.421 50.8094 108.864C50.2757 107.906 50.0032 106.706 50.5489 105.449C50.5221 105.286 50.8603 104.597 51.0042 104.557ZM51.564 109.335C51.5844 107.628 51.6901 105.983 51.7957 104.338C51.953 104.379 52.097 104.339 52.2542 104.381C52.2542 104.381 51.9989 110.15 52.0123 110.231C51.5857 109.924 51.5857 109.924 51.4016 109.72C51.4602 109.619 51.5188 109.518 51.564 109.335ZM53.0273 104.507C53.3285 104.508 53.5578 104.53 53.859 104.531C53.6877 108.066 53.7444 109.326 53.7744 110.423C53.5585 110.483 53.4146 110.523 52.7988 110.439C52.8758 109.992 53.0942 104.913 53.0273 104.507ZM54.6321 104.657C54.7894 104.699 54.8613 104.679 55.0186 104.72C54.99 105.919 54.9161 107.3 55.1015 109.8C54.9709 109.922 54.6965 110.083 54.5525 110.123C54.5175 109.452 54.506 108.009 54.6321 104.657ZM55.9901 139.918C56.0653 140.833 56.1321 141.239 56.5034 142.582C56.4181 142.521 56.3461 142.541 56.3327 142.459C56.1672 141.91 56.0735 141.341 55.908 140.791C55.9716 140.263 55.7959 140.567 55.9901 139.918ZM58.14 142.469C57.9177 140.659 57.8375 140.171 57.6452 139.459C58.6157 139.871 59.1843 141.499 58.14 142.469ZM56.9574 139.395C57.0644 140.045 57.1682 139.761 57.5325 142.892C57.3886 142.932 57.3032 142.871 57.1593 142.911C56.8014 141.649 56.6409 140.673 56.5257 139.514C56.944 139.313 56.8001 139.353 56.9574 139.395ZM65.7064 126.253C65.877 126.376 66.0477 126.499 66.2184 126.622C66.1732 126.804 66.1146 126.905 66.0694 127.088C65.7013 126.68 65.6745 126.517 65.7064 126.253ZM66.7558 124.857C66.5851 124.734 66.4145 124.611 66.2572 124.569C66.3877 124.448 66.7157 124.613 66.801 124.674C66.7424 124.775 66.7558 124.857 66.7558 124.857ZM65.8203 125.116C66.1617 125.361 66.1617 125.361 66.4896 125.526C66.4311 125.627 66.4578 125.79 66.3992 125.891C66.3139 125.83 65.8153 125.542 65.7299 125.481C65.7885 125.38 65.7751 125.298 65.8203 125.116ZM67.0404 123.842C65.302 122.878 64.1736 126.083 65.4752 127.593C65.5739 127.736 65.6593 127.797 65.758 127.94C62.4378 139.322 60.3733 146.443 58.3215 147.692C57.679 147.445 56.811 144.453 56.6187 143.741C57.6745 144.214 58.759 143.488 59.3047 142.231C59.4671 141.846 59.5174 141.237 59.4238 140.667C59.3168 140.016 58.8099 139.221 58.2126 138.792C57.5433 138.382 56.3384 138.375 55.6857 138.982C55.4966 139.204 55.5099 139.285 55.4514 139.387C54.4363 135.5 51.5412 125.671 47.9437 103.789C48.6448 103.935 49.2606 104.02 49.9617 104.166C46.8249 109.798 53.9209 114.976 56.9272 109.464C57.3825 108.573 57.6671 107.558 57.6506 106.542C57.7142 106.014 57.6206 105.445 57.527 104.875C60.7951 105.075 64.8866 104.792 68.1464 104.484C67.3746 106.654 69.6767 109.673 71.8456 108.221C69.3227 115.3 70.3772 113.476 67.0404 123.842ZM106.35 124.514C106.408 124.413 106.48 124.393 106.539 124.292C106.48 124.393 106.494 124.474 106.435 124.576C106.435 124.576 106.435 124.576 106.35 124.514ZM110.467 112.487C110.698 111.147 110.735 110.456 111.48 108.123C111.448 108.387 111.282 111.495 111.394 111.719C111.591 112.005 112.023 111.885 112.132 111.174C112.182 110.565 112.283 109.347 112.328 109.164C112.31 109.509 112.226 111.744 112.338 111.968C111.893 112.006 111.402 112.227 110.467 112.487ZM97.6695 117.479C97.5976 117.499 97.5976 117.499 97.6695 117.479C97.9172 117.155 99.3468 113.952 99.5812 113.547C99.1023 115.211 99.2832 114.48 98.7591 116.327C98.2955 116.71 97.9758 117.054 97.6695 117.479ZM102.053 110.736C102.57 110.678 103.087 110.619 103.591 110.48C103.389 110.621 103.285 110.905 103.109 111.209C102.651 111.166 102.502 111.632 101.713 112.786C101.907 112.137 101.894 112.056 101.971 111.609C102.003 111.345 101.734 111.08 101.459 111.241C101.126 111.503 100.567 112.679 100.333 113.084C100.41 112.637 100.87 111.319 100.803 110.912C102.557 110.596 102.269 110.676 102.053 110.736ZM112.888 104.331C112.901 104.412 112.928 104.575 112.941 104.656C112.824 104.859 112.819 105.286 112.787 105.549C112.334 105.08 112.166 105.892 111.972 106.541C111.932 106.297 111.761 106.174 111.617 106.214C112.126 105.648 112.374 105.324 112.888 104.331ZM110.847 107.023C110.906 106.921 111.037 106.8 111.109 106.78C111.063 106.963 110.901 107.348 110.869 107.612C110.914 107.429 110.874 107.185 110.847 107.023ZM107.8 109.994C107.602 109.708 107.157 109.747 106.995 110.132C106.784 109.765 106.267 109.823 106.033 110.228C105.785 110.552 105.623 110.937 105.375 111.261C105.268 110.61 104.783 110.405 104.404 110.85C104.279 110.544 104.265 110.463 104.095 110.34C104.671 110.181 107.202 109.564 109.443 108.092C109.34 108.376 109.294 108.559 109.191 108.843C108.652 108.312 108.111 109.142 107.8 109.994ZM98.9253 113.219C99.3054 111.412 98.7265 110.637 96.6894 114.264C96.8168 113.208 96.9575 112.233 96.3283 112.067C96.7467 111.866 98.9641 111.167 99.9849 110.969C99.7187 111.638 99.0424 113.016 98.9253 113.219ZM94.6179 113.562C94.8522 113.157 95.4464 112.652 95.8514 112.37C95.5718 112.958 95.3324 113.789 95.2101 114.419C95.0127 114.133 94.8153 113.848 94.6179 113.562ZM98.2375 113.154C97.9478 114.595 97.3568 116.035 97.1174 116.867C96.9334 116.663 96.736 116.377 96.5519 116.173C96.9805 115.119 97.5663 114.106 98.2375 113.154ZM100.592 114.203C100.398 114.852 100.398 114.852 100.28 115.055C100.208 115.075 100.208 115.075 100.15 115.176C100.254 114.892 100.416 114.507 100.592 114.203ZM102.734 112.588C102.644 112.954 102.62 113.726 102.745 114.031C102.183 114.272 101.895 114.352 101.549 114.533C101.581 114.269 102.486 112.912 102.734 112.588ZM103.44 112.308C103.531 111.942 103.634 111.658 103.81 111.355C103.824 111.436 103.805 111.781 103.773 112.045C103.552 112.532 103.313 113.364 103.596 113.71C103.524 113.73 103.38 113.77 103.308 113.79C103.412 113.506 103.395 112.49 103.44 112.308ZM104.474 112.191C104.592 111.989 104.637 111.806 104.754 111.603C104.869 112.762 104.64 112.741 104.576 113.269C104.432 113.308 104.36 113.328 104.216 113.368C104.406 113.146 104.456 112.536 104.474 112.191ZM106.513 110.861C106.54 111.023 106.566 111.186 106.548 111.531C106.399 111.998 106.263 112.546 106.271 113.054C105.826 113.092 105.597 113.071 105.381 113.131C105.432 112.521 106.161 111.468 106.513 110.861ZM107.177 111.697C107.236 111.596 107.222 111.515 107.281 111.413C107.302 112.003 107.148 112.896 107.593 112.858C108.052 112.901 107.945 112.25 108.099 111.357C108.235 110.809 108.429 110.16 108.722 109.653C108.815 110.222 108.547 112.253 108.497 112.862C107.62 113.02 107.908 112.941 107.018 113.017C107.063 112.835 107.159 112.043 107.177 111.697ZM109.503 110.287C109.684 109.556 109.761 109.11 110.19 108.056C110.171 108.401 109.694 112.361 109.891 112.646C109.675 112.706 109.459 112.766 109.171 112.845C109.336 111.099 109.594 109.922 109.503 110.287ZM113.361 106.751C113.388 106.914 113.414 107.077 113.369 107.259C113.348 106.67 113.407 108.865 113.456 109.617C113.437 109.962 113.392 110.145 113.662 110.41C113.76 110.553 113.976 110.493 114.093 110.291C114.107 110.372 114.12 110.453 114.133 110.535C113.958 110.839 113.134 111.322 112.932 111.463C113.036 111.179 113.329 107.015 113.361 106.751ZM116.287 119.974C116.202 119.913 116.045 119.871 115.901 119.911C115.946 119.728 115.978 119.464 115.879 119.322C115.951 119.302 116.01 119.2 116.082 119.18C116.194 119.404 116.234 119.649 116.287 119.974ZM113.225 120.568C113.369 120.528 113.513 120.488 113.715 120.347C113.585 120.468 113.454 120.589 113.337 120.792C113.324 120.71 113.31 120.629 113.225 120.568ZM111.416 121.919C111.448 121.656 111.479 121.392 111.367 121.167C111.93 120.927 111.714 120.986 112.289 120.827C111.983 121.252 111.663 121.596 111.416 121.919ZM109.846 122.44C109.387 122.397 108.951 122.943 108.644 123.368C108.604 123.124 108.636 122.86 108.524 122.636C109.406 122.051 109.608 121.91 110.315 121.629C110.125 121.852 110.022 122.136 109.846 122.44ZM110.664 122.383C110.619 122.566 110.38 123.397 110.262 123.6C110.308 123.417 110.281 123.255 110.326 123.072C110.371 122.889 110.488 122.687 110.664 122.383ZM109.916 123.781C109.929 123.862 109.916 123.781 109.916 123.781V123.781ZM107.397 124.479C107.339 124.58 107.222 124.783 107.163 124.884C107.24 124.438 107.403 124.052 107.637 123.647C107.578 123.749 107.371 124.316 107.397 124.479ZM108.498 124.769C108.733 124.364 108.922 124.142 109.242 123.798C108.858 124.67 108.808 125.279 108.699 125.989C108.614 125.928 108.456 125.887 108.371 125.825C108.376 125.399 108.421 125.216 108.498 124.769ZM112.58 121.682C111.968 122.532 110.846 123.948 111.079 124.905C110.804 125.066 110.674 125.187 110.327 125.368C110.846 123.948 110.676 123.826 112.58 121.682ZM114.451 121.163C114.64 120.941 114.758 120.738 115.019 120.496C114.558 121.814 113.482 123.048 113.936 123.517C113.72 123.577 113.517 123.719 113.373 123.758C113.887 122.765 114.27 121.894 114.451 121.163ZM114.349 120.086L114.421 120.066C114.421 120.066 114.421 120.066 114.349 120.086ZM115.904 120.846C115.899 121.272 115.641 122.449 115.78 122.836C115.276 122.976 115.132 123.016 114.642 123.237C115.097 122.345 114.796 122.343 115.904 120.846ZM116.56 121.174C116.645 121.236 116.645 121.236 116.658 121.317C116.784 121.622 116.851 122.029 116.976 122.335C116.63 122.516 116.558 122.536 116.486 122.555C116.473 122.474 116.515 121.357 116.56 121.174ZM110.219 89.9311C110.34 90.6632 110.741 93.1036 110.861 93.8357C108.123 97.3163 103.817 99.9556 100.038 101.683C100.038 101.683 100.21 98.1488 100.35 97.1742C101.168 100.775 100.894 100.936 101.483 100.858C101.842 100.758 101.735 100.107 101.7 99.4366C101.497 97.2818 101.488 96.7737 101.544 95.7378C101.888 96.9181 102.169 98.6263 102.37 99.8465C102.45 100.335 103.097 100.155 103.017 99.667C102.929 98.6709 102.675 97.1253 102.636 95.5199C102.829 96.2321 103.545 98.7554 103.545 98.7554C103.795 99.3663 104.286 99.1453 104.291 98.7186C104.234 97.4586 103.895 95.8516 103.707 94.7128C104.07 95.5477 104.607 97.4402 104.688 97.9283C104.781 98.4977 105.168 98.5607 105.357 98.3381C105.618 98.0957 105.27 95.9807 105.203 95.5739C105.096 94.9232 105.061 94.2525 105.013 93.5004C104.986 93.3377 105.045 93.2364 105.018 93.0737C105.584 93.7675 105.91 95.2932 105.757 94.825L105.771 94.9064C106.062 95.7613 106.132 97.1027 106.636 96.9631C107.283 96.7836 106.552 95.5403 106.367 93.0401C106.407 93.2842 106.38 93.1215 106.34 92.8774C106.703 93.7124 106.805 94.7899 106.952 95.6847C106.992 95.9287 107.059 96.3354 107.23 96.4582C107.486 96.6424 107.819 96.38 107.765 96.0546C107.623 94.7332 107.309 94.6502 107.433 92.6596C107.978 95.0601 107.747 96.4 108.394 96.2205C108.97 96.0609 108.512 96.0179 108.84 92.5247C109.027 93.6636 108.932 94.4555 109.449 94.3972C109.822 94.3789 109.899 93.9323 109.904 93.5056C109.891 93.4242 109.878 93.3429 109.864 93.2615C110.16 93.6898 110.741 93.1036 110.445 92.6753C110.365 92.1872 110.025 90.5803 109.86 90.0308C109.932 90.0109 110.076 89.971 110.219 89.9311ZM89.4922 104.351C89.4991 102.563 89.9513 100.737 90.5021 99.0532C90.5556 99.3786 90.5823 99.5413 90.5906 100.049C89.6845 105.063 91.5987 105.724 91.265 100.032C91.3102 99.8498 91.342 99.5859 91.3872 99.4032C91.628 100.867 91.3936 101.273 91.3064 102.573C91.2695 103.263 91.358 104.259 91.835 103.957C92.168 103.695 92.0827 103.633 92.1196 102.943C92.1986 101.135 92.0814 101.337 92.4482 99.4494C92.4934 99.2667 92.48 99.1854 92.5252 99.0028L92.9997 103.719C91.2325 103.954 90.7021 103.931 89.4922 104.351ZM88.3701 99.8142C88.4153 99.6316 88.4153 99.6316 88.4739 99.5303C88.7114 100.06 88.728 101.076 88.8082 101.564L88.8216 101.645C88.8216 101.645 88.87 102.397 88.8579 104.612C88.7859 104.632 88.7859 104.632 88.714 104.652C88.6153 104.509 88.6019 104.428 88.5032 104.285C88.5535 103.676 88.6509 101.522 88.3701 99.8142ZM89.1934 99.3308C89.4093 99.271 89.6252 99.2112 89.8277 99.07C89.6787 99.5366 89.5297 100.003 89.394 100.551C89.3991 100.124 89.3456 99.799 89.1934 99.3308ZM87.8842 103.266C87.7989 103.204 87.7855 103.123 87.7588 102.96C87.7505 102.452 87.8141 101.924 87.8912 101.478C87.8676 102.25 87.8759 102.758 87.8842 103.266ZM91.8158 98.3489C91.8878 98.3289 92.0317 98.289 92.1036 98.2691C92.0451 98.3704 92.0132 98.6344 91.9546 98.7356C91.8292 98.4302 91.8292 98.4302 91.8158 98.3489ZM98.1717 95.8218C98.1851 95.9031 98.1265 96.0044 98.1265 96.0044C98.1265 96.0044 98.1132 95.9231 98.1717 95.8218ZM95.5609 98.2465C95.5074 97.9211 95.4138 97.3517 95.2883 97.0462C95.5761 96.9664 95.7786 96.8253 96.0665 96.7455C95.9175 97.212 95.6965 97.6986 95.5609 98.2465ZM94.0096 98.4213C94.0631 98.7466 94.2281 102.954 94.3669 103.34C93.7912 103.5 94.223 103.38 93.7193 103.52C93.7263 101.732 93.9224 99.7212 94.0096 98.4213ZM95.0119 98.5687C95.2342 100.378 95.2106 101.15 95.3259 102.309C95.3928 102.716 95.9099 102.658 95.9283 102.312C95.9602 102.048 95.9334 101.886 95.8933 101.641C95.7112 100.076 95.9557 98.8175 96.5199 97.2152C96.8625 99.7569 96.355 102.619 97.1784 102.136C97.4529 101.975 97.3994 101.649 97.3459 101.324C97.3344 99.8812 97.2758 99.9825 97.3949 98.4186C97.4585 97.8906 97.5541 97.0987 97.5725 96.7533C97.7629 98.8269 97.8661 102.2 98.1941 102.365C97.2 102.725 95.95 102.902 95.0012 103.079C95.0515 102.47 94.635 101.31 95.0119 98.5687ZM97.0472 96.3036C97.0472 96.3036 97.0605 96.3849 97.0472 96.3036C97.0605 96.3849 97.0472 96.3036 97.0472 96.3036ZM98.5074 100.151C98.4724 99.4808 98.4157 98.2207 98.6971 96.2715C98.8175 97.0037 99.1347 101.679 99.3321 101.964C99.2601 101.984 99.2601 101.984 99.3321 101.964C99.0576 102.125 98.7698 102.205 98.5539 102.265C98.6844 102.144 98.5341 100.314 98.5074 100.151ZM101.061 100.124C101.227 106.627 101.061 100.124 101.061 100.124V100.124ZM101.689 94.3365C101.833 94.2966 101.905 94.2767 102.036 94.1554C101.977 94.2567 101.986 94.7647 101.999 94.8461C101.914 94.7847 101.788 94.4792 101.689 94.3365ZM102.67 93.8946C102.742 93.8746 102.814 93.8547 102.814 93.8547C102.841 94.0174 102.854 94.0987 102.881 94.2614C102.854 94.0987 102.769 94.0373 102.67 93.8946ZM105.383 92.5473C105.455 92.5274 105.585 92.4062 105.657 92.3862C105.612 92.5689 105.639 92.7316 105.666 92.8942C105.567 92.7515 105.468 92.6088 105.383 92.5473ZM106.481 91.9029C106.625 91.863 106.683 91.7617 106.827 91.7218C106.769 91.8231 106.737 92.0871 106.692 92.2697C106.665 92.107 106.651 92.0257 106.481 91.9029ZM108.285 90.9776C108.253 91.2416 108.126 92.2975 108.094 92.5615C108.027 92.1547 107.848 91.5239 107.52 91.3597C107.794 91.1985 108.082 91.1188 108.285 90.9776ZM104.2 93.1304C104.168 93.3944 104.181 93.4758 104.23 94.2278C104.091 93.841 103.979 93.6169 103.853 93.3115C103.997 93.2716 104.141 93.2317 104.2 93.1304ZM100.925 94.7186C100.848 95.1652 100.864 96.1812 100.859 96.6079C100.792 96.2012 100.528 95.509 100.168 95.6087C99.8083 95.7084 99.753 96.7444 99.716 97.435C99.6523 97.963 99.639 97.8817 99.5887 98.491C99.3982 96.4174 99.4167 96.0721 99.1658 95.4612C99.7281 95.2203 100.362 94.9595 100.925 94.7186ZM93.5161 97.7075C93.4257 98.0728 93.3435 98.9461 93.325 99.2914C93.2181 98.6406 93.2232 98.214 93.0124 97.8471C93.0257 97.9285 93.4441 97.7275 93.5161 97.7075ZM86.1979 100.331C86.7016 100.192 87.192 99.9706 87.6237 99.8509C87.3709 100.601 87.1633 101.169 87.0678 101.961C86.8169 101.35 86.5074 100.841 86.1979 100.331ZM89.3597 105.834C89.4903 105.713 89.4769 105.631 89.4635 105.55C91.5236 104.809 101.984 105.737 111.097 95.7266C111.677 98.7978 111.869 99.5099 112.535 102.643C111.614 105.279 108.91 107.134 106.602 108.199C102.45 109.945 96.3404 109.853 94.0792 113.031C92.4011 110.604 91.8942 109.809 89.3597 105.834ZM98.1497 118.112C98.5999 117.647 98.5413 117.748 98.789 117.424C99.1036 117.507 99.2074 117.223 99.3832 116.919C103.92 112.94 109.536 115.977 114.518 111.959C115.224 115.336 115.384 116.312 115.796 117.899C113.046 119.937 108.365 120.298 105.681 124.104C102.15 121.851 100.726 120.97 98.1497 118.112ZM119.209 129.966C117.266 130.504 111.35 127.466 110.195 126.851C110.11 126.789 110.024 126.728 109.939 126.666C113.31 124.286 116.039 123.955 117.294 123.352C118.328 126.893 119.462 129.215 119.209 129.966ZM151.858 61.295C151.799 61.3963 151.727 61.4162 151.597 61.5375C151.629 61.2735 151.661 61.0095 151.692 60.7455C151.818 61.051 151.858 61.295 151.858 61.295ZM150.193 62.6071C150.354 59.9258 150.526 58.6872 150.677 56.8593C151.009 57.9582 150.883 57.6528 151.214 58.7518C151.1 59.889 150.986 61.0263 150.872 62.1636C150.467 62.4459 150.598 62.3247 150.193 62.6071ZM150.063 55.4134C149.924 58.6841 149.639 59.6986 149.455 63.1518C149.18 63.3129 148.847 63.5754 148.573 63.7365C149.099 60.5288 149.248 60.0623 149.754 54.9039C149.853 55.0466 149.965 55.2707 150.063 55.4134ZM150.598 71.9356C151.046 72.832 151.257 73.1988 151.468 73.5657C151.031 74.112 150.698 74.3744 150.162 74.778C150.375 73.7835 150.489 72.6462 150.598 71.9356ZM149.547 74.6935C149.592 74.5109 149.384 75.0787 149.568 75.2829C149.366 75.4241 149.091 75.5852 148.902 75.8077C149.184 73.8585 149.107 74.3052 149.531 70.0201C149.741 70.3869 149.867 70.6923 150.078 71.0592C150.078 71.0592 149.592 74.5109 149.547 74.6935ZM145.14 88.1624C145.77 84.6708 145.892 84.0416 146.187 82.1737C146.398 82.5406 146.55 83.0087 146.761 83.3756C146.601 84.6955 146.456 86.0967 146.224 87.4366C145.891 87.699 145.63 87.9415 145.297 88.2039C145.225 88.2238 145.153 88.2438 145.14 88.1624ZM147.236 84.4346C147.446 84.8015 147.46 84.8828 148.079 85.902C148.079 85.902 146.963 86.8918 146.891 86.9117C147.236 84.4346 146.968 86.4651 147.236 84.4346ZM148.271 67.3923C148.508 67.9219 148.733 68.3701 148.97 68.8996C148.559 73.266 148.355 74.7686 148.092 76.3724C146.89 77.3008 147.354 76.9172 146.962 77.2809C148.195 70.135 147.899 69.7068 148.271 67.3923ZM149.306 54.0075C148.754 59.3485 147.907 64.2613 147.907 64.2613C147.326 64.8475 147.433 65.4983 147.796 66.3333C147.66 66.8812 147.514 68.2824 147.451 68.8104C147.209 71.0036 147.412 70.8624 146.166 77.927C144.991 79.0181 145.098 79.6688 145.725 81.196L144.497 87.9152C144.169 87.751 143.842 87.5867 143.527 87.5038C143.907 85.6974 144.141 85.2922 143.8 85.0466C144.623 84.5632 144.103 83.6868 143.655 82.7904C143.799 82.7506 143.857 82.6493 143.831 82.4866C144.109 79.6027 144.471 78.1416 144.579 77.431C144.579 77.431 144.824 76.1725 145.037 75.178C146.369 74.1283 147.696 73.5054 146.143 71.3841C146.175 71.1201 147.561 60.7849 147.449 60.5609C148.16 59.8534 148.453 59.3469 147.794 58.0837C147.794 58.0837 147.868 56.7024 148.503 52.7842C148.615 53.0082 149.207 53.8647 149.306 54.0075ZM142.3 86.9081C142.391 86.5429 142.612 86.0564 142.356 85.8722C142.702 85.6911 143.035 85.4287 143.382 85.2476C143.259 85.8769 143.137 86.5061 143.015 87.1354C142.714 87.1338 142.471 87.031 142.3 86.9081ZM141.258 86.5167C141.676 86.3156 141.676 86.3156 141.807 86.1944C141.762 86.377 141.716 86.5597 141.671 86.7423C141.573 86.5996 141.415 86.5581 141.258 86.5167ZM143.305 82.0368C143.166 81.65 142.956 81.2832 142.83 80.9778C143.08 79.2926 143.252 78.054 143.659 76.4103C143.992 76.1479 143.659 76.4103 144.384 75.7842C144.081 77.144 143.655 79.133 143.305 82.0368ZM142.297 80.02C142.059 79.4904 141.664 78.9195 141.499 78.37C141.571 78.35 142.732 77.1776 142.791 77.0763C142.591 78.1522 142.483 78.8628 142.297 80.02ZM144.444 68.368C144.345 68.2253 144.206 67.8385 144.108 67.6957C144.272 65.9492 144.458 64.792 144.644 63.6347C144.905 63.3923 145.166 63.1498 145.414 62.826C144.749 65.6469 144.531 67.0681 144.444 68.368ZM143.574 66.738C143.35 66.2898 142.928 65.5561 142.928 65.5561C143.104 65.2522 143.685 64.666 143.874 64.4435C143.778 65.2354 143.674 65.5194 143.574 66.738ZM146.08 62.3012C146.066 62.2198 146.066 62.2198 146.053 62.1385C146.301 61.8147 146.634 61.5522 146.881 61.2284C145.891 68.4772 146.871 62.0818 145.637 70.589C145.031 69.6512 145.242 70.018 144.932 69.5084C145.401 65.0407 146.08 62.3012 146.08 62.3012ZM146.862 59.2777C146.862 59.2777 146.875 59.359 146.862 59.2777C146.875 59.359 146.862 59.2777 146.862 59.2777ZM145.624 72.8037C145.624 72.8037 145.638 72.8851 145.624 72.8037C145.566 72.905 145.566 72.905 145.624 72.8037C145.624 72.8037 145.638 72.8851 145.624 72.8037ZM147.656 54.0395C147.528 55.0954 147.406 55.7247 147.234 56.9633C146.713 56.0868 146.937 56.535 146.529 55.8827C146.953 55.255 147.318 54.7286 147.656 54.0395ZM137.742 67.4187C137.589 70.608 136.783 78.0609 135.512 83.6014L135.099 83.3757C135.978 78.199 136.316 77.5099 137.233 67.985C137.67 67.4387 137.494 67.7426 137.742 67.4187ZM134.416 82.8845C134.848 79.1074 135.359 77.1798 136.157 69.2189C136.288 69.0977 136.477 68.8751 136.607 68.7539C135.618 78.2987 134.587 83.0073 134.587 83.0073C134.501 82.9459 134.416 82.8845 134.416 82.8845ZM133.32 82.1677C133.831 80.24 134.799 72.4019 134.995 70.3913C135.126 70.2701 135.315 70.0476 135.446 69.9263C135.003 74.5568 133.832 82.5361 133.832 82.5361C133.661 82.4133 133.491 82.2905 133.32 82.1677ZM127.339 77.3615C129.585 75.4632 131.628 73.7061 133.893 71.4625C133.561 74.021 133.051 78.2447 132.395 81.5736C129.848 79.8129 128.699 78.7706 127.339 77.3615ZM136.339 84.0527C137.492 78.7148 138.334 71.9327 138.57 66.5087C141.434 63.3335 143.352 61.271 145.768 57.1995C145.978 57.5663 146.624 58.7482 146.776 59.2163C145.934 60.045 143.62 62.8979 143.124 63.5455C141.26 65.9335 141.723 65.5498 142.561 67.4439C143.413 69.4192 143.552 69.806 144.099 70.8452C144.08 71.1905 144.12 71.4345 144.408 71.3547C144.52 71.5788 145.323 72.8022 145.363 73.0462C144.972 73.4099 142.563 75.6934 142.681 75.4908C139.183 78.9268 140.142 77.8956 142.907 84.1886C142.358 84.5108 140.967 85.6617 139.973 86.0223C137.507 84.7497 137.408 84.6069 136.339 84.0527ZM156.958 72.6393C157.012 72.9647 157.124 73.1888 157.177 73.5141C156.616 76.0511 155.577 80.2517 155.146 82.6674C155.101 82.8501 154.851 84.5353 154.825 84.3726C154.838 84.4539 154.766 84.4739 154.838 84.4539C154.806 84.7179 154.67 85.2658 154.702 85.0018C154.413 86.443 153.091 92.5928 152.91 93.3233L152.825 93.2619C153.118 92.7554 156.044 77.1453 156.958 72.6393ZM159.012 79.6397C157.945 83.6777 155.665 94.5162 155.569 95.3081C155.47 95.1653 155.313 95.1239 155.214 94.9811C155.368 94.0879 155.509 93.1133 155.663 92.2201C155.451 93.2146 158.524 78.4993 158.587 77.9714C158.681 78.5408 158.847 79.0903 159.012 79.6397ZM154.276 94.3057C154.348 94.2858 158.045 76.5056 158.032 76.4242C158.045 76.5056 158.045 76.5056 158.059 76.5869L155.012 91.4649C155.031 91.1196 154.55 94.1446 154.46 94.5099C154.446 94.4285 154.361 94.3671 154.276 94.3057ZM153.494 93.6718C155.983 82.2654 155.916 81.8587 155.916 81.8587C155.916 81.8587 155.916 81.8587 155.903 81.7773C155.916 81.8587 156.961 77.2314 157.522 74.6944C157.535 74.7758 157.549 74.8571 157.575 75.0198C154.439 90.2631 153.92 91.6827 153.678 93.8759C153.665 93.7946 153.58 93.7332 153.494 93.6718ZM162.697 100.222C162.697 100.222 162.769 100.202 162.697 100.222C162.769 100.202 162.697 100.222 162.697 100.222ZM162.697 100.222C161.74 99.8917 156.849 96.2291 156.166 95.7379C156.788 91.7383 159.189 81.6319 159.357 80.82C160.206 84.1568 163.092 97.1354 162.697 100.222ZM156.56 71.1336C156.483 71.5802 156.284 72.6561 156.361 72.2095L152.273 92.6494C150.966 91.5657 148.164 89.6208 146.622 88.9423C150.097 86.2782 149.926 86.1554 149.096 84.7694C147.858 82.7311 146.756 80.1448 146.649 79.494C147.653 78.2801 151.136 76.1241 152.284 74.8703C153.55 73.414 152.974 73.5735 150.786 69.417C150.562 68.9688 148.907 65.7701 148.813 65.2007C149.988 64.1096 152.939 63.2919 153.063 61.3013C153.623 62.4217 154.112 63.5622 154.528 64.7225C154.913 66.1468 156.765 69.6311 156.56 71.1336ZM153.664 10.9538C154.121 8.70078 155.078 5.37345 156.704 3.81735C158.846 2.20299 162.327 7.36185 158.117 18.8202C155.671 25.4518 154.576 27.0309 153.408 29.9914C153.531 22.0473 152.266 19.8463 153.664 10.9538ZM151.287 35.8526L151.273 35.7712C151.273 35.7712 151.273 35.7712 151.287 35.8526ZM150.492 31.4798C147.575 28.3761 141.746 20.3807 140.422 18.2809C139.467 16.5895 138.459 14.5727 138.281 12.5805C138.27 11.1378 138.72 10.6728 139.933 11.1871C145.562 14.3049 148.767 24.6436 150.492 31.4798Z"
        fill="#EFE2DA"
      ></path>
        <path
        d="M69.1233 112.762C67.3612 109.435 62.3366 110.403 61.3672 116.14C60.1855 123.846 68.505 124.389 69.7222 117.368C69.7816 117.265 69.8409 117.161 69.8138 116.995C69.8784 116.457 70.021 115.462 69.9263 114.881C69.945 114.529 69.4555 112.93 69.1233 112.762ZM68.8599 115.352C67.8737 113.978 66.9094 113.206 65.6586 112.079C67.7133 111.593 68.862 113.963 68.8599 115.352ZM68.634 117.237C68.1612 116.675 66.4429 114.551 64.5923 112.55C64.6652 112.53 64.6652 112.53 64.7381 112.51C65.5566 113.323 67.0718 114.202 68.7121 116.782C68.6527 116.885 68.6798 117.051 68.634 117.237ZM62.5347 118.158C62.9346 118.74 63.4344 119.469 64.3071 120.614C63.2647 120.297 62.6649 119.423 62.5347 118.158ZM65.4954 120.89C65.4683 120.724 62.5232 116.685 62.5232 116.685C62.5096 116.602 62.6148 116.313 62.6013 116.23C64.7008 119.289 64.733 119.02 65.8005 120.891C65.6412 120.849 65.8734 120.871 65.4954 120.89ZM66.6482 120.481C65.6536 118.589 64.7757 117.88 62.9355 115.008C62.9813 114.822 63.0271 114.636 63.0865 114.532C67.0637 119.758 66.7075 120.378 67.2636 120.049C67.1313 120.173 66.8533 120.337 66.6482 120.481ZM67.5875 119.699C67.9165 118.913 64.1935 114.31 63.6207 113.602C63.8581 113.189 63.6801 113.499 63.931 113.169C65.6087 115.044 65.8816 115.315 67.5864 117.356C68.1456 117.981 68.0727 118.001 68.0727 118.001C68.1727 118.147 68.2591 118.21 68.4184 118.252C68.03 119.142 67.8384 119.369 67.5875 119.699Z"
        fill="#EFE2DA"
      ></path>
        <path
        d="M58.0459 120.707C57.856 119.544 57.1823 118.689 56.2709 118.248C53.0902 116.528 51.4041 124.905 55.5817 124.783C57.8666 124.754 58.5735 121.603 58.0459 120.707ZM56.1949 123.395C56.6026 122.152 56.6808 121.696 57.0426 120.639C57.0562 120.722 57.0426 120.639 57.0833 120.889C56.9728 121.615 57.3816 122.717 56.1949 123.395ZM55.5764 119.137C55.4575 119.344 54.5774 122.369 54.4721 122.659C54.0174 121.744 54.2812 119.15 55.5764 119.137ZM55.0457 123.368C55.4722 121.772 56.1823 119.576 56.1823 119.576C56.4419 119.764 56.3554 119.701 56.6286 119.973C56.3502 120.137 55.5431 123.143 55.3648 123.453C55.1322 123.431 55.2052 123.411 55.0457 123.368Z"
        fill="#EFE2DA"
      ></path>
        <path
        d="M61.3513 127.313C59.8697 127.118 58.1213 128.561 57.5542 129.761C56.7493 131.376 56.5075 134.571 58.0684 136.655C59.1423 138.093 62.6246 138.859 64.1206 135.401C64.1071 135.318 64.1801 135.298 64.1665 135.215C64.8796 133.973 65.0276 132.542 64.7242 131.15C64.4208 129.758 63.3844 127.614 61.3513 127.313ZM63.4939 130.624C62.3689 129.809 61.3847 129.388 60.1408 128.779C61.1814 128.142 62.6306 128.606 63.4939 130.624ZM59.4517 129.232C62.345 130.597 63.8161 131.664 63.8161 131.664C63.8568 131.913 63.911 132.245 63.8787 132.515C62.2022 131.593 60.5986 130.65 58.8032 129.934C58.9815 129.624 59.2463 129.376 59.4517 129.232ZM58.281 134.684C59.9575 135.607 59.0327 135.083 61.3421 136.61C59.7824 136.872 58.8305 136.182 58.281 134.684ZM62.3503 136.242C62.2179 136.366 62.1449 136.387 61.999 136.427C61.9771 135.825 58.478 134.021 58.0589 133.791C58.0182 133.541 58.0318 133.624 58.0505 133.272C58.4697 133.502 62.515 135.849 62.6016 135.912C62.5286 135.932 62.4097 136.139 62.3503 136.242ZM63.2688 134.857C63.2688 134.857 63.15 135.064 62.9717 135.374C62.0469 134.85 60.5163 133.887 58.0151 132.587C58.0474 132.317 58.0203 132.151 58.0526 131.881C60.7728 133.121 63.3877 134.65 63.3877 134.65C63.3877 134.65 63.3282 134.754 63.2688 134.857ZM63.6577 133.967C63.1843 133.404 58.8741 131.305 58.2225 131.052C58.2684 130.865 58.3143 130.679 58.4331 130.472C60.8666 131.357 62.9894 132.676 63.8412 133.221C63.7817 133.324 63.8683 133.387 63.6577 133.967Z"
        fill="#EFE2DA"
      ></path>
        <path
        d="M1430.68 12.3127C1427.41 10.1127 1420.97 20.0127 1418.88 23.8127C1418.97 18.0127 1418.8 8.41268 1415.7 3.91268C1414.37 2.01268 1412.53 1.21268 1411.27 2.91268C1410.18 4.31268 1410.18 6.31268 1410.43 8.11268C1411.27 14.9127 1412.94 21.0127 1414.78 27.5127C1409.77 26.3127 1404.33 32.0127 1400.4 26.7127C1402.24 26.4127 1404.58 25.5127 1406.17 24.1127C1407.26 23.1127 1407.93 21.7127 1407.93 19.8127C1407.93 17.8127 1406.34 15.9127 1404.91 15.4127C1402.91 14.7127 1400.73 15.2127 1399.31 17.1127C1398.47 18.3127 1398.06 19.9127 1397.8 21.4127C1397.64 22.3127 1397.55 23.6127 1397.72 24.5127C1396.47 24.6127 1394.71 24.7127 1393.29 26.0127C1391.7 27.4127 1391.2 30.3127 1391.53 31.1127C1392.12 32.7127 1393.96 31.7127 1393.45 30.2127C1393.79 26.7127 1395.71 27.0127 1398.64 26.9127C1403.41 35.1127 1411.27 28.3127 1414.78 30.2127C1402.4 42.1127 1382.08 51.1127 1377.06 52.8127C1375.72 53.2127 1374.3 53.6127 1372.96 53.9127C1369.28 54.8127 1365.6 55.2127 1361.84 55.3127C1357.91 55.4127 1354.06 55.2127 1350.13 54.5127C1346.11 53.8127 1342.1 52.8127 1338.25 51.3127C1334.23 49.8127 1330.3 47.9127 1326.54 45.5127C1322.61 43.1127 1318.84 40.2127 1315.33 37.0127C1313.49 35.3127 1311.73 33.5127 1310.06 31.6127C1309.22 30.6127 1308.39 29.6127 1307.55 28.6127C1307.13 28.1127 1306.71 27.6127 1306.3 27.0127C1305.88 26.5127 1305.46 25.9127 1305.29 25.2127C1305.29 25.0127 1305.21 24.8127 1305.38 24.6127C1305.54 24.3127 1306.13 24.6127 1306.3 24.7127C1306.38 24.8127 1306.55 24.9127 1306.63 24.9127C1306.88 25.1127 1307.13 25.2127 1307.47 25.3127C1307.97 25.6127 1308.55 25.8127 1309.06 25.9127C1310.14 26.2127 1311.31 26.4127 1312.4 26.3127C1315.41 26.2127 1318.76 24.8127 1320.77 22.0127C1322.86 19.0127 1322.19 15.2127 1320.18 12.4127C1319.01 10.8127 1317 10.0127 1314.83 11.1127C1312.07 12.5127 1311.98 16.4127 1313.74 16.9127C1315.16 17.4127 1315.41 15.2127 1314.41 14.8127C1313.99 13.5127 1315.83 11.6127 1317.84 12.1127C1321.6 13.4127 1323.53 23.3127 1312.74 24.0127C1309.22 24.0127 1308.47 23.4127 1306.38 22.1127C1308.55 16.6127 1310.73 7.61268 1307.97 2.11268C1306.46 -0.887316 1304.2 -0.387316 1303.03 1.71268C1301.03 5.41268 1301.19 14.2127 1301.03 19.0127C1298.93 16.9127 1292.83 11.0127 1290.15 10.6127C1286.22 10.0127 1285.3 15.9127 1294.42 21.8127C1295.92 22.8127 1300.78 24.3127 1302.87 25.6127C1302.7 26.0127 1302.53 26.3127 1302.36 26.7127C1300.86 30.0127 1300.02 33.0127 1298.18 34.5127C1296.51 35.5127 1294.42 36.0127 1292.66 34.9127C1288.98 32.2127 1291.24 28.4127 1292.66 29.2127C1294.08 30.3127 1293.83 33.3127 1295.34 32.6127C1296.17 32.2127 1295.92 31.2127 1295.51 30.3127C1294.92 28.9127 1293.92 27.4127 1292.66 27.2127C1289.9 26.8127 1287.39 31.7127 1290.74 35.6127C1291.57 36.6127 1292.41 37.1127 1293.25 37.4127C1295 38.2127 1296.84 38.2127 1298.93 37.4127C1301.86 36.3127 1303.2 31.9127 1304.46 28.7127C1306.55 31.9127 1309.22 34.8127 1311.9 37.3127C1311.06 39.8127 1309.73 45.0127 1306.8 52.5127C1305.96 54.6127 1303.12 61.2127 1301.86 65.3127C1300.27 70.3127 1305.46 66.5127 1311.98 65.1127C1312.4 65.0127 1315.83 64.1127 1316.17 64.3127C1316.58 64.7127 1318.59 70.9127 1318.76 71.5127C1320.93 78.0127 1320.68 79.6127 1321.77 80.1127C1324.11 81.2127 1324.78 74.5127 1334.82 54.3127C1334.99 53.9127 1335.15 53.5127 1335.4 53.1127C1340.67 55.5127 1343.1 55.9127 1350.46 57.2127C1349.88 58.1127 1352.38 84.7127 1352.89 89.1127C1353.05 90.3127 1353.64 90.8127 1354.22 90.7127C1355.56 90.5127 1357.32 85.3127 1362.59 78.2127C1367.36 82.3127 1371.71 89.4127 1372.46 90.0127C1373.38 90.8127 1374.55 90.6127 1374.8 88.5127C1375.14 85.9127 1373.46 61.3127 1373.88 57.2127C1373.88 56.8127 1373.8 56.4127 1373.63 56.1127C1378.48 54.8127 1380.99 53.8127 1387.35 50.6127C1387.52 51.4127 1397.22 77.5127 1398.56 78.4127C1399.06 78.7127 1399.73 78.5127 1400.15 77.5127C1401.07 75.3127 1402.32 62.3127 1403.49 60.5127C1404.33 60.6127 1410.02 63.9127 1412.78 65.7127C1416.71 68.5127 1417.63 69.8127 1418.88 69.1127C1420.05 68.4127 1419.8 66.7127 1419.47 65.2127C1418.13 59.7127 1414.7 52.3127 1411.52 42.2127C1411.02 40.5127 1410.52 38.9127 1409.68 37.4127C1412.11 35.5127 1414.03 33.9127 1416.21 31.8127C1416.46 32.2127 1416.79 33.0127 1417.04 33.3127C1418.13 35.9127 1418.8 38.9127 1421.23 42.6127C1422.9 45.1127 1426.58 47.3127 1429.26 46.3127C1433.02 44.9127 1433.52 34.4127 1429.76 33.0127C1428.67 32.6127 1427.5 33.1127 1426.75 34.3127C1424.57 38.0127 1427.25 38.8127 1427.75 37.3127C1428.25 35.7127 1428.17 35.0127 1429 34.6127C1429.51 34.5127 1429.84 34.7127 1430.18 35.1127C1431.26 36.5127 1431.26 39.4127 1430.84 41.3127C1430.51 42.6127 1430.01 44.1127 1428.92 44.5127C1427.16 45.0127 1424.99 43.5127 1423.65 42.1127C1421.98 40.0127 1420.05 34.6127 1419.05 32.3127C1426.08 32.2127 1435.86 15.8127 1430.68 12.3127ZM1399.23 24.3127C1398.81 22.8127 1399.48 18.8127 1401.07 17.5127C1404.24 15.4127 1408.34 19.4127 1404.24 22.6127C1403.24 23.3127 1401.4 24.1127 1399.23 24.3127ZM1314.58 15.0127C1314.49 15.0127 1314.49 14.9127 1314.58 15.0127C1314.49 14.9127 1314.49 15.0127 1314.58 15.0127ZM1289.06 13.2127C1289.06 13.2127 1289.06 13.1127 1289.06 13.2127C1289.06 13.1127 1289.06 13.1127 1289.06 13.2127C1289.06 13.2127 1289.06 13.1127 1289.06 13.2127ZM1289.06 13.2127C1288.98 13.2127 1288.98 13.2127 1289.06 13.2127C1288.98 13.2127 1288.98 13.2127 1289.06 13.2127ZM1294.67 19.7127C1293 18.5127 1289.32 15.6127 1289.06 13.2127C1289.48 10.4127 1298.18 19.3127 1301.44 22.7127C1297.35 21.0127 1296.84 21.1127 1294.67 19.7127ZM1306.8 3.71268C1307.8 5.61268 1307.88 8.41268 1307.8 10.5127C1307.72 12.5127 1307.22 14.3127 1306.71 16.3127C1306.21 18.4127 1305.46 20.4127 1304.54 22.3127C1304.46 22.5127 1304.29 22.8127 1304.04 22.8127C1303.87 22.8127 1303.79 22.5127 1303.7 22.3127C1303.54 21.6127 1303.45 21.0127 1303.37 20.3127C1303.2 18.1127 1303.45 15.7127 1303.54 13.5127C1303.62 11.4127 1303.79 9.21268 1304.04 7.11268C1304.2 5.81268 1304.37 4.11268 1305.04 3.01268C1305.71 2.01268 1306.46 3.01268 1306.8 3.71268ZM1322.69 76.7127C1322.19 74.3127 1319.09 63.2127 1317.17 62.1127C1314.99 60.9127 1304.37 65.5127 1303.7 65.7127C1310.48 48.9127 1308.81 54.3127 1313.57 38.9127C1324.53 48.8127 1326.29 49.0127 1333.31 52.2127C1332.14 54.5127 1323.53 74.9127 1322.69 76.7127ZM1372.71 86.4127C1370.54 83.1127 1368.11 80.1127 1365.1 77.1127C1361.92 73.9127 1361.75 75.2127 1357.65 81.8127C1355.81 84.7127 1355.4 85.7127 1354.73 87.0127C1354.73 86.8127 1352.47 57.7127 1352.38 57.6127C1357.4 58.3127 1365.77 58.1127 1371.46 56.8127C1370.7 59.9127 1372.71 82.5127 1372.71 86.4127ZM1417.04 65.3127C1413.78 62.7127 1405.5 57.3127 1403.07 57.7127C1399.98 58.2127 1400.15 68.4127 1398.89 75.7127C1397.47 71.4127 1389.36 50.0127 1389.27 49.8127C1394.88 47.0127 1402.57 42.9127 1407.67 39.0127C1408.85 41.4127 1416.37 61.7127 1417.04 65.3127ZM1414.95 5.91268C1417.29 10.9127 1416.96 21.4127 1416.46 27.1127C1408.76 0.312683 1412.94 2.11268 1414.95 5.91268ZM1418.46 29.8127C1419.55 25.8127 1429.09 10.4127 1430.34 14.7127C1431.18 19.8127 1423.32 30.1127 1418.46 29.8127Z"
        fill="#EFE2DA"
      ></path>
        <path
        d="M1343.35 75.7128C1342.1 76.0128 1341.01 76.1128 1341.18 77.3128C1341.34 78.7128 1342.6 78.2128 1343.6 77.9128C1344.19 77.7128 1344.44 77.2128 1344.35 76.6128C1344.35 76.1128 1343.85 75.5128 1343.35 75.7128Z"
        fill="#EFE2DA"
      ></path>
        <path
        d="M1344.77 89.1126C1345.27 90.5126 1346.45 89.5126 1348.29 88.3126C1349.62 87.4126 1348.45 85.4126 1347.53 86.1126C1345.27 87.5126 1344.35 87.9126 1344.77 89.1126Z"
        fill="#EFE2DA"
      ></path>
        <path
        d="M1357.49 98.6127C1357.49 97.9127 1357.49 97.0127 1357.32 95.9127C1357.15 94.6127 1355.4 94.8127 1355.56 96.2127C1355.65 97.0127 1355.73 97.8127 1355.81 98.6127C1355.98 99.9127 1357.49 99.7127 1357.49 98.6127Z"
        fill="#EFE2DA"
      ></path>
        <path
        d="M1367.78 96.3127C1367.27 94.1127 1367.27 93.4127 1366.86 93.0127C1366.44 92.6127 1365.77 92.7127 1365.43 93.2127C1365.02 93.9127 1365.27 94.4127 1365.85 96.8127C1366.44 98.3127 1368.03 97.4127 1367.78 96.3127Z"
        fill="#EFE2DA"
      ></path>
        <path
        d="M1376.06 93.9127C1375.47 94.0127 1375.05 94.6127 1375.14 95.3127C1375.22 96.1127 1377.14 97.8127 1377.65 98.2127C1378.65 99.0127 1379.82 97.4127 1378.82 96.3127C1376.81 94.2127 1376.81 93.8127 1376.06 93.9127Z"
        fill="#EFE2DA"
      ></path>
        <path
        d="M1378.57 85.6128C1379.32 85.7128 1380.07 85.7128 1380.91 85.8128C1381.58 85.9128 1382.16 85.2128 1382 84.4128C1381.83 83.3128 1380.99 83.3128 1378.82 83.1128C1377.31 83.0128 1377.31 85.5128 1378.57 85.6128Z"
        fill="#EFE2DA"
      ></path>
        <path
        d="M1379.74 74.8127C1380.49 74.5127 1380.24 72.8127 1379.15 73.2127C1377.81 73.7127 1376.31 73.9127 1376.73 75.1127C1377.14 76.0127 1377.81 75.6127 1379.74 74.8127Z"
        fill="#EFE2DA"
      ></path>
        <path
        d="M1389.94 72.6126C1389.52 72.9126 1389.44 73.3126 1389.61 73.7126C1389.94 74.7126 1390.78 74.0126 1392.53 73.0126C1392.87 72.8126 1393.12 72.3126 1392.95 71.8126C1392.45 70.7126 1391.45 71.5126 1389.94 72.6126Z"
        fill="#EFE2DA"
      ></path>
        <path
        d="M1392.53 82.6126C1392.87 83.2126 1393.71 83.3126 1394.46 81.8126C1395.46 80.0126 1396.22 79.0126 1395.38 78.3126C1395.04 78.0126 1394.37 78.0127 1394.12 78.5127C1393.87 78.9127 1393.62 79.4126 1393.37 79.8126C1392.62 81.4126 1392.03 81.9126 1392.53 82.6126Z"
        fill="#EFE2DA"
      ></path>
        <path
        d="M1404.66 88.1127C1404.33 87.0127 1403.99 85.9127 1403.66 84.8127C1403.49 84.2127 1402.82 83.9127 1402.32 84.2127C1401.23 84.7127 1401.74 86.1127 1402.91 89.1127C1403.41 90.3127 1405.17 89.6127 1404.66 88.1127Z"
        fill="#EFE2DA"
      ></path>
        <path
        d="M1407.67 73.3128C1406.84 73.2128 1406.34 74.4128 1406.84 75.0128C1408.34 76.9128 1408.76 77.7128 1409.26 77.8128C1410.1 77.9128 1410.52 76.8128 1410.02 76.1128C1408.43 73.9128 1408.18 73.4128 1407.67 73.3128Z"
        fill="#EFE2DA"
      ></path>
        <path
        d="M1415.45 73.8126C1415.96 77.6126 1415.96 78.9126 1416.96 78.8126C1418.05 78.6126 1417.71 77.6126 1417.21 73.5126C1417.13 72.1126 1415.29 72.5126 1415.45 73.8126Z"
        fill="#EFE2DA"
      ></path>
        <path
        d="M1425.24 70.4127C1424.91 70.3127 1423.65 69.5127 1423.32 69.2127C1422.65 68.8127 1421.81 69.7127 1422.15 70.7127C1422.4 71.4127 1424.4 72.4127 1425.07 72.5127C1425.99 72.6127 1426.49 70.8127 1425.24 70.4127Z"
        fill="#EFE2DA"
      ></path>
        <path
        d="M1423.9 56.6127C1422.65 57.9127 1420.22 58.3127 1420.81 59.9127C1421.06 60.5127 1421.64 60.7127 1422.06 60.5127C1423.9 59.3127 1426.08 58.1127 1425.16 56.8127C1424.82 56.4127 1424.24 56.3127 1423.9 56.6127Z"
        fill="#EFE2DA"
      ></path>
        <path
        d="M1421.06 49.3125C1420.97 48.4125 1419.97 48.1125 1419.55 48.8125C1418.72 50.2125 1417.88 51.3125 1418.72 52.0125C1419.05 52.3125 1419.64 52.3125 1419.97 51.8125C1420.89 50.1125 1421.14 49.9125 1421.06 49.3125Z"
        fill="#EFE2DA"
      ></path>
        <path
        d="M1330.3 78.7127C1330.55 79.1127 1330.97 79.1127 1331.31 78.8127C1332.23 78.0127 1330.8 76.8127 1329.88 75.9127C1329.55 75.6127 1329.13 75.7127 1328.88 76.1127C1328.29 77.0127 1329.3 77.5127 1330.05 78.4127C1330.13 78.5127 1330.22 78.6127 1330.3 78.7127Z"
        fill="#EFE2DA"
      ></path>
        <path
        d="M1326.54 87.0127C1327.12 87.3127 1327.71 86.5127 1327.46 85.9127C1326.54 84.0127 1326.45 82.5127 1325.53 83.0127C1324.78 83.4127 1325.28 84.4127 1325.7 85.5127C1325.79 85.8127 1326.2 86.8127 1326.54 87.0127Z"
        fill="#EFE2DA"
      ></path>
        <path
        d="M1321.1 84.5127C1321.18 83.9127 1320.85 83.4127 1320.35 83.3127C1318.76 83.1127 1319.34 86.8127 1318.68 88.8127C1318.42 89.4127 1318.93 90.2127 1319.51 90.1127C1320.35 90.0127 1320.6 88.0127 1321.1 84.5127Z"
        fill="#EFE2DA"
      ></path>
        <path
        d="M1316 77.9127C1316.75 76.6127 1315.16 75.3127 1314.41 76.5127C1312.49 79.7127 1311.73 80.6127 1312.57 81.4127C1313.57 82.2127 1314.24 80.8127 1316 77.9127Z"
        fill="#EFE2DA"
      ></path>
        <path
        d="M1309.64 76.7128C1310.06 75.5128 1310.06 74.4128 1310.31 71.8128C1310.39 71.2128 1310.06 70.7128 1309.56 70.6128C1308.05 70.4128 1308.72 73.4128 1308.14 75.9128C1307.8 77.4128 1309.31 77.7128 1309.64 76.7128Z"
        fill="#EFE2DA"
      ></path>
        <path
        d="M1300.11 74.1126C1299.27 75.0126 1300.36 76.3126 1301.03 75.5126C1304.29 72.1126 1301.95 71.1126 1301.36 72.1126C1300.78 73.1126 1300.61 73.6126 1300.11 74.1126Z"
        fill="#EFE2DA"
      ></path>
        <path
        d="M1296.09 63.6127C1295.42 63.5127 1294.84 64.5127 1295.34 65.2127C1295.67 65.7127 1297.01 65.9127 1299.44 66.5127C1299.94 66.6127 1300.52 66.0127 1300.44 65.3127C1300.36 64.3127 1299.86 64.3127 1296.09 63.6127Z"
        fill="#EFE2DA"
      ></path>
        <path
        d="M1301.7 55.5128C1301.36 55.3128 1300.52 54.6128 1300.19 54.6128C1299.52 54.7128 1299.44 55.8128 1299.85 56.1128C1300.19 56.3128 1300.52 56.6128 1300.86 56.8128C1301.78 57.5128 1302.45 56.0128 1301.7 55.5128Z"
        fill="#EFE2DA"
      ></path>
        <path
        d="M55.7336 264.254C60.7938 251.244 60.1914 233.231 51.5167 222.366C87.4203 222.652 49.83 370.476 49.83 370.476H47.9023C35.8541 336.737 42.4806 297.136 55.7336 264.254Z"
        fill="#00A138"
      ></path>
        <path
        d="M51.5165 222.366C51.5165 222.366 51.637 222.366 51.5165 222.366C60.1912 233.231 60.7936 251.244 55.8538 264.254C42.6009 297.136 35.9744 336.737 48.143 370.619H46.2153C46.0948 370.619 15.372 222.366 51.5165 222.366Z"
        fill="#6FD189"
      ></path>
        <path
        d="M93.0831 272.403C93.9265 272.832 94.7699 273.261 95.6133 273.976C115.975 289.988 84.1675 324.871 57.0591 313.577C57.0591 313.577 57.0591 313.434 57.1796 313.291C66.9386 312.433 76.3362 308.716 83.6856 300.424C90.3121 293.848 94.6494 282.839 93.0831 272.403Z"
        fill="#00A138"
      ></path>
        <path
        d="M93.0828 272.403C94.649 282.839 90.1912 293.848 83.8057 300.281C76.4563 308.573 67.0588 312.29 57.2997 313.148C58.866 308.716 75.8539 264.254 93.0828 272.403Z"
        fill="#6FD189"
      ></path>
        <path
        d="M38.3843 261.824C38.8662 262.825 39.1072 263.539 39.1072 263.539V269.83C39.1072 269.83 -3.18188 253.818 0.191609 238.092C14.5289 236.948 28.7458 249.243 38.3843 261.824Z"
        fill="#6FD189"
      ></path>
        <path
        d="M0.312439 238.092C0.673884 236.376 1.51726 234.661 3.08352 233.088C17.1799 218.077 34.6497 253.532 38.3846 261.824C28.7461 249.243 14.5293 236.948 0.312439 238.092Z"
        fill="#00A138"
      ></path>
        <path
        d="M10.5533 188.626C11.9991 187.769 13.6859 187.769 15.7341 188.769C29.9509 195.346 11.8786 234.518 11.8786 234.518C11.7582 234.232 11.5172 233.946 11.3967 233.66C14.7702 219.221 18.6256 200.35 10.5533 188.626Z"
        fill="#00A138"
      ></path>
        <path
        d="M10.5528 188.626C18.6251 200.349 14.8902 219.078 11.2757 233.517C5.25165 223.081 2.60105 193.344 10.5528 188.626Z"
        fill="#6FD189"
      ></path>
        <path
        d="M79.3481 331.59H18.6253C18.6253 331.59 17.782 380.054 48.9867 380.054C80.1914 380.054 79.3481 331.59 79.3481 331.59Z"
        fill="#FFCC46"
      ></path>
        <path
        d="M73.565 331.59H79.4686C79.4686 331.59 80.312 380.054 49.1073 380.054C48.1434 380.054 47.1796 380.054 46.2157 379.912C74.4084 376.909 73.565 331.59 73.565 331.59Z"
        fill="#FFA42F"
      ></path>
        <path
        d="M44.2883 230.658C44.2883 231.373 44.7702 231.944 45.3726 231.944C45.975 231.944 46.4569 231.373 46.4569 230.658C46.4569 229.943 45.975 229.371 45.3726 229.371C44.7702 229.371 44.2883 229.943 44.2883 230.658Z"
        fill="#00A138"
      ></path>
        <path
        d="M35.2521 266.828C35.2521 267.542 35.7341 268.257 36.457 268.257C37.0594 268.257 37.6618 267.685 37.6618 266.828C37.6618 266.113 37.1798 265.398 36.457 265.398C35.7341 265.398 35.2521 266.113 35.2521 266.828Z"
        fill="#00A138"
      ></path>
        <path
        d="M17.4205 247.528C17.4205 247.956 17.6614 248.242 18.0229 248.242C18.3843 248.242 18.6253 247.956 18.6253 247.528C18.6253 247.099 18.3843 246.813 18.0229 246.813C17.7819 246.813 17.4205 247.099 17.4205 247.528Z"
        fill="#00A138"
      ></path>
        <path
        d="M8.98682 198.777C8.98682 199.206 9.34826 199.635 9.70971 199.635C10.0712 199.635 10.4326 199.206 10.4326 198.777C10.4326 198.348 10.0712 197.919 9.70971 197.919C9.34826 197.919 8.98682 198.205 8.98682 198.777Z"
        fill="#00A138"
      ></path>
        <path
        d="M54.047 252.96C54.047 253.532 54.4084 253.961 54.8904 253.961C55.3723 253.961 55.7337 253.532 55.7337 252.96C55.7337 252.388 55.3723 251.959 54.8904 251.959C54.4084 251.959 54.047 252.388 54.047 252.96Z"
        fill="#00A138"
      ></path>
        <path
        d="M42.1191 290.702C42.1191 291.417 42.6011 291.989 43.2035 291.989C43.8059 291.989 44.2878 291.417 44.2878 290.702C44.2878 289.988 43.8059 289.416 43.2035 289.416C42.6011 289.416 42.1191 289.988 42.1191 290.702Z"
        fill="#00A138"
      ></path>
        <path
        d="M39.2275 314.434C39.2275 315.149 39.4685 315.721 39.8299 315.721C40.1914 315.721 40.4324 315.149 40.4324 314.434C40.4324 313.72 40.1914 313.148 39.8299 313.148C39.4685 313.148 39.2275 313.72 39.2275 314.434Z"
        fill="#00A138"
      ></path>
        <path
        d="M4.52936 246.241C4.52936 246.527 4.77032 246.813 5.01128 246.813C5.25225 246.813 5.49321 246.527 5.49321 246.241C5.49321 245.955 5.25225 245.669 5.01128 245.669C4.77032 245.669 4.52936 245.955 4.52936 246.241Z"
        fill="#00A138"
      ></path>
        <path
        d="M89.2276 276.978C89.6934 276.978 90.071 276.53 90.071 275.977C90.071 275.425 89.6934 274.977 89.2276 274.977C88.7619 274.977 88.3843 275.425 88.3843 275.977C88.3843 276.53 88.7619 276.978 89.2276 276.978Z"
        fill="#00A138"
      ></path>
        <path
        d="M77.4206 291.989C77.4206 292.704 77.9025 293.133 78.3845 293.133C78.8664 293.133 79.3483 292.561 79.3483 291.989C79.3483 291.274 78.8664 290.845 78.3845 290.845C77.9025 290.845 77.4206 291.274 77.4206 291.989Z"
        fill="#00A138"
      ></path>
        <path
        d="M63.0832 303.855C63.0832 304.427 63.4446 304.856 63.9266 304.856C64.4085 304.856 64.7699 304.427 64.7699 303.855C64.7699 303.283 64.4085 302.854 63.9266 302.854C63.4446 302.854 63.0832 303.283 63.0832 303.855Z"
        fill="#00A138"
      ></path>
        <path
        d="M86.095 295.42C86.095 296.707 87.1793 297.708 88.5046 297.708C89.8299 297.708 90.9142 296.707 90.9142 295.42C90.9142 294.134 89.8299 293.133 88.5046 293.133C87.1793 293.133 86.095 294.134 86.095 295.42Z"
        fill="#00A138"
      ></path>
        <path
        d="M1447.36 210V176H1558.53V210H1547.32V244H1564.55V278V312H1566.3V346H1572.33V380H1461.16V346H1455.14V312H1453.47V278V244H1436.24V210H1447.36Z"
        fill="#FBFBFB"
      ></path>
        <path d="M1447.36 210H1497.71L1447.36 203.5V210Z" fill="#E6E6E6"></path>
        <path
        d="M1558.53 200.3H1498.97L1558.53 197.9V200.3Z"
        fill="#E6E6E6"
      ></path>
        <path d="M1547.32 210H1521.47L1547.32 213.5V210Z" fill="#E6E6E6"></path>
        <path d="M1447.36 181H1536.53L1447.36 183.4V181Z" fill="#E6E6E6"></path>
        <path d="M1558.53 190H1463.42L1558.53 187.4V190Z" fill="#E6E6E6"></path>
        <path
        d="M1436.24 216.9H1519.71L1436.24 220.6V216.9Z"
        fill="#E6E6E6"
      ></path>
        <path d="M1453.47 244H1564.55L1453.47 250.4V244Z" fill="#E6E6E6"></path>
        <path
        d="M1547.32 236.4H1475.8L1547.32 233.8V236.4Z"
        fill="#E6E6E6"
      ></path>
        <path
        d="M1436.24 229.3L1467.85 231.9H1436.24V229.3Z"
        fill="#E6E6E6"
      ></path>
        <path
        d="M1564.55 278L1453.47 279.4L1564.55 282.8V278Z"
        fill="#E6E6E6"
      ></path>
        <path
        d="M1564.55 254.3H1493.78L1564.55 257.2V254.3Z"
        fill="#E6E6E6"
      ></path>
        <path
        d="M1453.47 263L1536.53 265.9L1453.47 267.2V263Z"
        fill="#E6E6E6"
      ></path>
        <path
        d="M1453.47 273.3H1497.71L1453.47 275.9V273.3Z"
        fill="#E6E6E6"
      ></path>
        <path d="M1453.47 312H1562.21L1453.47 303.9V312Z" fill="#E6E6E6"></path>
        <path
        d="M1564.55 292.3L1519.71 294.1L1564.55 295.7V292.3Z"
        fill="#E6E6E6"
      ></path>
        <path
        d="M1453.47 286.8L1482.24 289.7H1453.47V286.8Z"
        fill="#E6E6E6"
      ></path>
        <path d="M1566.3 319.9L1532.6 321.5H1566.3V319.9Z" fill="#E6E6E6"></path>
        <path d="M1566.3 332.4L1457.15 338H1566.3V332.4Z" fill="#E6E6E6"></path>
        <path d="M1572.33 346H1465.26L1572.33 352.3V346Z" fill="#E6E6E6"></path>
        <path
        d="M1461.16 353.2H1495.79L1461.16 357.3V353.2Z"
        fill="#E6E6E6"
      ></path>
        <path
        d="M1572.33 364.4L1500.56 368.3H1572.33V364.4Z"
        fill="#E6E6E6"
      ></path>
        <path d="M1572.33 380L1461.16 373.3V380H1572.33Z" fill="#E6E6E6"></path>
        <path
        d="M1590.23 368.3C1594.91 368.3 1598.76 366.8 1601.69 363.8C1607.29 358 1607.04 348.7 1607.04 348.3C1607.04 347.4 1606.37 346.6 1605.53 346.6H1589.31C1588.47 346.6 1587.8 347.4 1587.8 348.4C1587.8 349.4 1588.47 350.2 1589.31 350.2H1603.94C1603.78 352.8 1602.94 357.8 1599.68 361.2C1596.42 364.6 1591.4 365.6 1584.79 364.2C1583.95 364 1583.2 364.7 1583.03 365.6C1582.87 366.6 1583.45 367.5 1584.2 367.7C1586.38 368 1588.39 368.3 1590.23 368.3Z"
        fill="#E8462C"
      ></path>
        <path
        d="M1594.41 343.2H1544.97C1544.97 343.2 1546.98 379.6 1569.65 380.1C1592.4 380.5 1594.41 343.2 1594.41 343.2Z"
        fill="#FF5B41"
      ></path>
        <path
        d="M1566.72 373.4C1583.37 373.7 1588.89 353.9 1590.65 343.2H1594.41C1594.41 343.2 1592.4 380.5 1569.73 380.1C1558.27 379.9 1552.08 370.5 1548.82 361.3C1552.42 367.8 1558.11 373.2 1566.72 373.4Z"
        fill="#E8462C"
      ></path>
        <path
        d="M1513.52 313.9V291H1421.18C1438.83 298.7 1453.8 311.8 1473.46 316.6C1487.34 319.9 1500.56 317.7 1513.52 313.9Z"
        fill="#7860DC"
      ></path>
        <path
        d="M1473.46 316.6C1453.8 311.8 1438.83 298.7 1421.18 291H1417.33V320.5H1513.61V313.9C1500.56 317.7 1487.34 319.9 1473.46 316.6Z"
        fill="#6A51D4"
      ></path>
        <path
        d="M1447.19 365.7C1465.01 372.4 1483.49 373.4 1501.65 370.8V350H1405.45V350.7C1419.92 350.3 1433.73 360.9 1447.19 365.7Z"
        fill="#FF5B41"
      ></path>
        <path
        d="M1447.19 365.7C1433.73 360.9 1419.92 350.3 1405.45 350.7V379.5H1501.73V370.8C1483.49 373.4 1465.09 372.4 1447.19 365.7Z"
        fill="#F23F22"
      ></path>
        <path
        d="M1494.87 343.7V320.5H1405.7C1416.83 324 1427.37 333 1438.49 337.6C1456.9 344.2 1476.05 346.1 1494.87 343.7Z"
        fill="#FFA42F"
      ></path>
        <path
        d="M1438.49 337.6C1427.37 333 1416.83 324 1405.7 320.5H1398.59V350H1494.87V343.7C1476.05 346.1 1456.9 344.2 1438.49 337.6Z"
        fill="#FA9514"
      ></path>
        <path
        d="M1429.13 312.7C1425.95 312.7 1423.27 309.6 1423.27 305.7C1423.27 301.9 1425.86 298.7 1429.13 298.7C1432.39 298.7 1434.98 301.8 1434.98 305.7C1434.9 309.6 1432.3 312.7 1429.13 312.7Z"
        fill="white"
      ></path>
        <path
        d="M1410.47 342.2C1407.29 342.2 1404.62 339.1 1404.62 335.2C1404.62 331.3 1407.21 328.2 1410.47 328.2C1413.73 328.2 1416.33 331.3 1416.33 335.2C1416.33 339.1 1413.65 342.2 1410.47 342.2Z"
        fill="white"
      ></path>
        <path
        d="M1417.25 371.7C1414.07 371.7 1411.39 368.6 1411.39 364.7C1411.39 360.8 1413.99 357.7 1417.25 357.7C1420.43 357.7 1423.1 360.8 1423.1 364.7C1423.1 368.6 1420.51 371.7 1417.25 371.7Z"
        fill="white"
      ></path>
    </g>
</svg>