<svg width="22" height="19" viewBox="0 0 22 19" fill="none" xmlns="http://www.w3.org/2000/svg">
<path d="M11.048 0.171875C5.47299 0.171875 0.952225 4.46843 0.952225 9.76873C0.952225 14.0089 3.84497 17.6062 7.85633 18.8752C8.36089 18.964 8.54613 18.667 8.54613 18.4135C8.54613 18.1846 8.53676 17.4287 8.53242 16.6268C5.72376 17.2073 5.1311 15.4945 5.1311 15.4945C4.67185 14.3852 4.01015 14.0902 4.01015 14.0902C3.09416 13.4946 4.07919 13.5068 4.07919 13.5068C5.09298 13.5745 5.6268 14.4958 5.6268 14.4958C6.52724 15.9629 7.98857 15.5388 8.56468 15.2936C8.6553 14.6733 8.91694 14.25 9.20566 14.0103C6.96325 13.7676 4.60598 12.9447 4.60598 9.2675C4.60598 8.21974 5.00037 7.36364 5.64619 6.69156C5.54137 6.44985 5.1958 5.47376 5.74399 4.15186C5.74399 4.15186 6.59177 3.89394 8.52105 5.13558C9.32636 4.92294 10.19 4.81631 11.048 4.81265C11.906 4.81631 12.7703 4.92294 13.5771 5.13558C15.5041 3.89394 16.3507 4.15186 16.3507 4.15186C16.9002 5.47376 16.5545 6.44985 16.4496 6.69156C17.097 7.36364 17.4887 8.21974 17.4887 9.2675C17.4887 12.9535 15.1269 13.7651 12.8788 14.0027C13.2409 14.3005 13.5636 14.8845 13.5636 15.7799C13.5636 17.0639 13.5519 18.0974 13.5519 18.4135C13.5519 18.6689 13.7336 18.9681 14.2454 18.8739C18.2545 17.6035 21.1436 14.0074 21.1436 9.76873C21.1436 4.46843 16.6235 0.171875 11.048 0.171875ZM4.73342 13.8428C4.71119 13.8905 4.63228 13.9048 4.56039 13.872C4.48716 13.8407 4.44604 13.7757 4.46978 13.7279C4.49151 13.6788 4.57059 13.6651 4.64365 13.698C4.71704 13.7293 4.75883 13.795 4.73342 13.8428ZM5.23002 14.264C5.18187 14.3064 5.08775 14.2867 5.02389 14.2197C4.95785 14.1528 4.94548 14.0633 4.9943 14.0202C5.04395 13.9778 5.13523 13.9977 5.20143 14.0646C5.26747 14.1323 5.28034 14.2211 5.23002 14.264ZM5.57071 14.8029C5.50885 14.8438 5.40771 14.8055 5.34518 14.7201C5.28332 14.6348 5.28332 14.5325 5.34652 14.4915C5.40921 14.4504 5.50885 14.4873 5.57221 14.572C5.6339 14.6588 5.6339 14.7611 5.57071 14.8029ZM6.14688 15.4271C6.09154 15.4851 5.97368 15.4695 5.88742 15.3904C5.79914 15.313 5.77457 15.2032 5.83007 15.1452C5.88608 15.087 6.00461 15.1034 6.09154 15.1819C6.17915 15.2591 6.2059 15.3697 6.14688 15.4271ZM6.89153 15.6378C6.86712 15.713 6.75361 15.7471 6.63925 15.7152C6.52507 15.6823 6.45034 15.5942 6.47341 15.5183C6.49715 15.4426 6.61117 15.407 6.72635 15.4412C6.84037 15.4739 6.91527 15.5614 6.89153 15.6378ZM7.73897 15.7272C7.74181 15.8063 7.64485 15.8719 7.52481 15.8734C7.40411 15.8759 7.30647 15.8119 7.30513 15.734C7.30513 15.6541 7.39993 15.5891 7.52063 15.5872C7.64067 15.5849 7.73897 15.6485 7.73897 15.7272ZM8.57149 15.6968C8.58587 15.7741 8.50244 15.8534 8.38324 15.8745C8.26605 15.8948 8.15755 15.8472 8.14267 15.7706C8.12812 15.6914 8.21305 15.6121 8.33008 15.5916C8.44945 15.5719 8.55627 15.6183 8.57149 15.6968Z" fill="#161614"/>
</svg>
