<svg width="132" height="231" viewBox="0 0 132 231" fill="none" xmlns="http://www.w3.org/2000/svg">
<g clip-path="url(#clip0_10_2)">
<path d="M67 1C67 0.447715 66.5523 0 66 0C65.4477 0 65 0.447715 65 1V3C65 3.55228 65.4477 4 66 4C66.5523 4 67 3.55228 67 3V1Z" fill="#BCCCE1"/>
<path d="M67 18C67 17.4477 66.5523 17 66 17C65.4477 17 65 17.4477 65 18V20C65 20.5523 65.4477 21 66 21C66.5523 21 67 20.5523 67 20V18Z" fill="#BCCCE1"/>
<path d="M67 35C67 34.4477 66.5523 34 66 34C65.4477 34 65 34.4477 65 35V37C65 37.5523 65.4477 38 66 38C66.5523 38 67 37.5523 67 37V35Z" fill="#BCCCE1"/>
<path d="M67 90C67 89.4477 66.5523 89 66 89C65.4477 89 65 89.4477 65 90V92C65 92.5523 65.4477 93 66 93C66.5523 93 67 92.5523 67 92V90Z" fill="#BCCCE1"/>
<path d="M67 107C67 106.448 66.5523 106 66 106C65.4477 106 65 106.448 65 107V109C65 109.552 65.4477 110 66 110C66.5523 110 67 109.552 67 109V107Z" fill="#BCCCE1"/>
<path d="M67 124C67 123.448 66.5523 123 66 123C65.4477 123 65 123.448 65 124V126C65 126.552 65.4477 127 66 127C66.5523 127 67 126.552 67 126V124Z" fill="#BCCCE1"/>
<path d="M67 141C67 140.448 66.5523 140 66 140C65.4477 140 65 140.448 65 141V143C65 143.552 65.4477 144 66 144C66.5523 144 67 143.552 67 143V141Z" fill="#BCCCE1"/>
<path d="M67 194C67 193.448 66.5523 193 66 193C65.4477 193 65 193.448 65 194V196C65 196.552 65.4477 197 66 197C66.5523 197 67 196.552 67 196V194Z" fill="#BCCCE1"/>
<path d="M67 211C67 210.448 66.5523 210 66 210C65.4477 210 65 210.448 65 211V213C65 213.552 65.4477 214 66 214C66.5523 214 67 213.552 67 213V211Z" fill="#BCCCE1"/>
<path d="M67 228C67 227.448 66.5523 227 66 227C65.4477 227 65 227.448 65 228V230C65 230.552 65.4477 231 66 231C66.5523 231 67 230.552 67 230V228Z" fill="#BCCCE1"/>
<path d="M66 181.25C102.037 181.25 131.25 152.037 131.25 116C131.25 79.9634 102.037 50.75 66 50.75C29.9634 50.75 0.75 79.9634 0.75 116C0.75 152.037 29.9634 181.25 66 181.25Z" stroke="#E4EBF3" stroke-width="1.5"/>
<path d="M66 157C88.6437 157 107 138.644 107 116C107 93.3563 88.6437 75 66 75C43.3563 75 25 93.3563 25 116C25 138.644 43.3563 157 66 157Z" fill="#F4F5F8"/>
<path d="M66 137C77.598 137 87 127.598 87 116C87 104.402 77.598 95 66 95C54.402 95 45 104.402 45 116C45 127.598 54.402 137 66 137Z" fill="white"/>
<path d="M61 113.2L67 109V123" stroke="#5E6B7B" stroke-width="2" stroke-linecap="round" stroke-linejoin="round"/>
<path d="M72 113L67 109" stroke="#5E6B7B" stroke-width="2" stroke-linecap="round" stroke-linejoin="round"/>
</g>
<defs>
<clipPath id="clip0_10_2">
<rect width="132" height="231" fill="white"/>
</clipPath>
</defs>
</svg>
