<svg width="22" height="17" viewBox="0 0 22 17" fill="none" xmlns="http://www.w3.org/2000/svg">
<path d="M21.1436 2.53203C20.4007 2.84522 19.6023 3.05689 18.7644 3.15209C19.6197 2.66472 20.2765 1.89302 20.5858 0.973531C19.7854 1.42474 18.8988 1.75246 17.9553 1.9291C17.1996 1.16379 16.123 0.685547 14.9315 0.685547C12.6437 0.685547 10.7889 2.44862 10.7889 4.62325C10.7889 4.93187 10.8256 5.23242 10.8962 5.52062C7.45337 5.35641 4.40099 3.78871 2.35784 1.40635C2.00127 1.98793 1.79699 2.66437 1.79699 3.38601C1.79699 4.75214 2.52838 5.95744 3.6399 6.66357C2.9608 6.64314 2.3221 6.46601 1.76353 6.17107C1.76323 6.1875 1.76323 6.204 1.76323 6.22057C1.76323 8.12848 3.19116 9.72004 5.08622 10.0817C4.73858 10.1717 4.37263 10.2198 3.99478 10.2198C3.72787 10.2198 3.46834 10.1952 3.21546 10.1492C3.74256 11.7137 5.27241 12.8521 7.08512 12.8839C5.66739 13.94 3.88119 14.5696 1.94041 14.5696C1.60607 14.5696 1.2763 14.551 0.952225 14.5146C2.78547 15.6319 4.96295 16.2837 7.30233 16.2837C14.9219 16.2837 19.0885 10.2834 19.0885 5.07986C19.0885 4.90912 19.0845 4.7393 19.0765 4.57045C19.8859 4.01526 20.5882 3.3217 21.1436 2.53203Z" fill="#55ACEE"/>
</svg>
